<?xml version="1.0" standalone="no"?>
<!DOCTYPE svg PUBLIC "-//W3C//DTD SVG 1.1//EN" "http://www.w3.org/Graphics/SVG/1.1/DTD/svg11.dtd" >
<svg>
<metadata>
Created by FontForge 20120731 at Fri Aug 30 21:13:42 2019
 By www
Copyright (c)2014 Commercial Type.
</metadata>
<defs>
<font id="Druk-Bold" horiz-adv-x="335" >
  <font-face 
    font-family="Druk Bold"
    font-weight="700"
    font-stretch="normal"
    units-per-em="1000"
    panose-1="0 0 0 0 0 0 0 0 0 0"
    ascent="812"
    descent="-188"
    x-height="538"
    cap-height="744"
    bbox="-53 -215 973 1054"
    underline-thickness="84"
    underline-position="-104"
    unicode-range="U+0020-FB02"
  />
<missing-glyph horiz-adv-x="500" 
 />
    <glyph glyph-name="f_f" unicode="ff" horiz-adv-x="476" 
d="M258 744v-113h-47q-12 0 -16 -5t-4 -18v-70h84v132q0 30 21 52t61 22h112v-113h-47q-12 0 -16 -5t-4 -18v-70h65v-119h-65v-419h-127v419h-84v-419h-127v419h-60v119h60v132q0 30 21 52t61 22h112z" />
    <glyph glyph-name="f_i" unicode="fi" horiz-adv-x="420" 
d="M253 744v-113h-42q-12 0 -16 -5t-4 -18v-70h62v-119h-62v-419h-127v419h-60v119h60v132q0 30 21 52t61 22h107zM404 0v538h-128v-538h128zM404 564v126h-128v-126h128z" />
    <glyph glyph-name="f_l" unicode="fl" horiz-adv-x="420" 
d="M253 744v-113h-42q-12 0 -16 -5t-4 -18v-70h62v-119h-62v-419h-127v419h-60v119h60v132q0 30 21 52t61 22h107zM404 0v744h-128v-744h128z" />
    <glyph glyph-name="emdash.alt" unicode="&#x2014;&#x2014;" horiz-adv-x="986" 
d="M13 345h960v-90h-960v90z" />
    <glyph glyph-name=".notdef" horiz-adv-x="500" 
 />
    <glyph glyph-name=".null" horiz-adv-x="0" 
 />
    <glyph glyph-name="nonmarkingreturn" horiz-adv-x="333" 
 />
    <glyph glyph-name="space" unicode=" " horiz-adv-x="103" 
 />
    <glyph glyph-name="exclam" unicode="!" horiz-adv-x="160" 
d="M139 144v-144h-119v144h119zM7 744h145l-47 -577h-51z" />
    <glyph glyph-name="quotedbl" unicode="&#x22;" horiz-adv-x="228" 
d="M104 744v-191h-91v191h91zM215 744v-191h-91v191h91z" />
    <glyph glyph-name="numbersign" unicode="#" horiz-adv-x="368" 
d="M106 748h91l-18 -210h35l18 210h92l-19 -210h60l-7 -98h-61l-8 -94h60l-7 -98h-62l-21 -248h-90l21 248h-36l-21 -248h-90l21 248h-61l9 98h60l8 94h-61l9 98h60zM170 440l-8 -94h36l8 94h-36z" />
    <glyph glyph-name="dollar" unicode="$" horiz-adv-x="352" 
d="M155 -72v61q-147 3 -147 156v133h123v-135q0 -37 24 -45v209l-74 76q-40 41 -55 86t-15 109v23q0 76 39 113t105 39v59h35v-59q72 -1 104 -37t32 -109v-101h-116v102q0 31 -20 37v-188l66 -68q52 -53 70 -92.5t18 -111.5v-27q0 -77 -41 -122.5t-113 -46.5v-61h-35z
M218 181q0 54 -28 89v-174q28 9 28 56v29zM134 581q0 -57 21 -85v149q-21 -6 -21 -38v-26z" />
    <glyph glyph-name="percent" unicode="%" horiz-adv-x="490" 
d="M263 102v128q0 52 26.5 80t72.5 28h20q46 0 72 -28.5t26 -79.5v-128q0 -50 -26 -78.5t-72 -28.5h-20q-46 0 -72.5 27.5t-26.5 79.5zM10 515v128q0 52 26.5 79.5t72.5 27.5h20q46 0 72 -28t26 -79v-128q0 -50 -26 -79t-72 -29h-20q-46 0 -72.5 28t-26.5 80zM344 744h83
l-279 -744h-83zM135 508v143q0 20 -17 20q-16 0 -16 -20v-143q0 -20 16 -20q17 0 17 20zM371 75q17 0 17 20v143q0 20 -17 20q-16 0 -16 -20v-143q0 -20 16 -20z" />
    <glyph glyph-name="ampersand" unicode="&#x26;" horiz-adv-x="449" 
d="M10 230q0 116 96 189q-44 94 -44 172v28q0 33 9.5 61t40 50.5t78.5 22.5h22q68 0 96 -34.5t28 -99.5v-13q0 -61 -20.5 -99.5t-80.5 -88.5l82 -180q6 47 6 207h112q-3 -221 -46 -329q22 -17 61 -24q-23 -95 -28 -110q-72 11 -106 40q-37 -33 -101 -33h-13q-91 0 -141.5 53
t-50.5 152v36zM223 99q21 0 35 7l-110 225q-13 -35 -13 -76v-26q0 -130 88 -130zM176 596q0 -46 24 -100q17 23 22 43.5t5 57.5v15q0 25 -5 34t-20 9t-20.5 -9.5t-5.5 -33.5v-16z" />
    <glyph glyph-name="quotesingle" unicode="'" horiz-adv-x="119" 
d="M106 744v-191h-93v191h93z" />
    <glyph glyph-name="parenleft" unicode="(" horiz-adv-x="210" 
d="M25 344q0 254 109 464h78q-30 -80 -50 -202.5t-20 -258.5q0 -253 73 -478h-78q-112 218 -112 475z" />
    <glyph glyph-name="parenright" unicode=")" horiz-adv-x="210" 
d="M68 347q0 135 -20 257.5t-50 203.5h77q110 -208 110 -464q0 -260 -113 -475h-77q73 232 73 478z" />
    <glyph glyph-name="asterisk" unicode="*" horiz-adv-x="233" 
d="M144 678l50 40l36 -61l-61 -25l60 -27l-34 -59l-51 41l8 -66h-72l9 66l-50 -41l-36 61l60 25l-61 25l36 61l50 -40l-8 66h72z" />
    <glyph glyph-name="plus" unicode="+" horiz-adv-x="340" 
d="M121 134v121h-108v91h108v122h98v-122h108v-91h-108v-121h-98z" />
    <glyph glyph-name="comma" unicode="," horiz-adv-x="145" 
d="M101 -95h-67q24 56 25 95h-46v144h119v-106q0 -68 -31 -133z" />
    <glyph glyph-name="hyphen" unicode="-" horiz-adv-x="179" 
d="M13 359h153v-121h-153v121z" />
    <glyph glyph-name="period" unicode="." horiz-adv-x="145" 
d="M132 144v-144h-119v144h119z" />
    <glyph glyph-name="slash" unicode="/" horiz-adv-x="215" 
d="M215 808l-130 -939h-95l131 939h94z" />
    <glyph glyph-name="zero" unicode="0" horiz-adv-x="370" 
d="M354 564v-399q0 -81 -41.5 -128.5t-114.5 -47.5h-30q-76 0 -114 46.5t-38 129.5v398q0 190 153 190h30q155 0 155 -189zM214 165v412q0 24 -6.5 35t-23.5 11q-30 0 -30 -46v-412q0 -43 29 -43q31 0 31 43z" />
    <glyph glyph-name="one" unicode="1" horiz-adv-x="239" 
d="M85 547h-78v114q54 0 75 21.5t25 61.5h111v-744h-133v547z" />
    <glyph glyph-name="two" unicode="2" horiz-adv-x="359" 
d="M175 632q-25 0 -25 -34v-115h-125v131q0 59 32.5 99t103.5 40h27q72 0 111.5 -36t39.5 -107v-42q0 -69 -10.5 -107t-54.5 -95q-10 -13 -73 -95q-39 -51 -57.5 -83.5t-19.5 -39t-1 -19.5h93v127h130v-256h-337v76q0 70 16 118t74 145l64 106q17 28 25.5 49t10 31.5
t1.5 27.5v45q0 34 -25 34z" />
    <glyph glyph-name="three" unicode="3" horiz-adv-x="346" 
d="M141 515h-122v96q0 59 31.5 100.5t100.5 41.5h28q73 0 109.5 -38.5t36.5 -104.5v-83q0 -85 -48 -113q55 -18 55 -85v-186q0 -71 -40 -112.5t-108 -41.5h-28q-76 0 -110.5 38t-34.5 96v150h130v-118q0 -35 28 -35q27 0 27 35v145q0 17 -4.5 23.5t-20.5 6.5h-69v133h62
q16 0 22 7.5t6 25.5v102q0 20 -6 27t-20 7q-25 0 -25 -34v-83z" />
    <glyph glyph-name="four" unicode="4" horiz-adv-x="363" 
d="M159 293v181q-31 -100 -61 -181h61zM5 279q76 203 167 470h117v-456h69v-127h-69v-166h-130v166h-154v113z" />
    <glyph glyph-name="five" unicode="5" horiz-adv-x="349" 
d="M151 331h-131v413h305v-129h-177v-147q40 70 91 70h12q42 0 62.5 -29t20.5 -68v-307q0 -61 -36 -103t-105 -42h-40q-75 0 -108 40t-33 92v152h133v-123q0 -35 25 -35t25 35v225q0 37 -23 37q-21 0 -21 -36v-45z" />
    <glyph glyph-name="six" unicode="6" horiz-adv-x="368" 
d="M256 479h8q45 0 67.5 -29t22.5 -65v-246q0 -60 -40.5 -104.5t-111.5 -44.5h-30q-76 0 -116 41t-40 104v461q0 73 38.5 115.5t115.5 42.5h28q68 0 105 -36t37 -87v-112h-137v83q0 29 -24 29q-25 0 -25 -29v-189q15 19 24.5 28.5t32 23.5t45.5 14zM185 116q30 0 30 39v171
q0 37 -30 37q-31 0 -31 -36v-172q0 -39 31 -39z" />
    <glyph glyph-name="seven" unicode="7" horiz-adv-x="325" 
d="M11 744h306v-120q-8 -56 -44 -242q-32 -179 -32 -293v-89h-160v76q0 102 54 265q77 233 77 283h-79v-109h-122v229z" />
    <glyph glyph-name="eight" unicode="8" horiz-adv-x="359" 
d="M338 612v-107q0 -68 -52 -99q59 -28 59 -105v-158q0 -69 -39 -111t-113 -43h-28q-151 0 -151 155v157q0 73 59 105q-52 28 -52 99v109q0 59 34.5 99t110.5 40h23q74 0 111.5 -39t37.5 -102zM207 149v146q0 37 -28 37q-27 0 -27 -37v-146q0 -33 27 -33q28 0 28 33z
M205 486v118q0 32 -26 32q-25 0 -25 -32v-117q0 -32 26 -32q25 0 25 31z" />
    <glyph glyph-name="nine" unicode="9" horiz-adv-x="368" 
d="M115 263h-8q-45 0 -69 34t-24 79v232q0 59 36.5 102t110.5 43h30q80 0 120.5 -40t40.5 -102v-480q0 -63 -36.5 -102.5t-111.5 -39.5h-30q-75 0 -110.5 31.5t-35.5 84.5v118h137v-83q0 -29 25 -29q23 0 23 29v189q-48 -66 -98 -66zM182 627q-30 0 -30 -40v-171
q0 -38 30 -38q31 0 31 37v172q0 40 -31 40z" />
    <glyph glyph-name="colon" unicode=":" horiz-adv-x="149" 
d="M134 144v-144h-119v144h119zM134 437v-142h-119v142h119z" />
    <glyph glyph-name="semicolon" unicode=";" horiz-adv-x="149" 
d="M103 -96h-67q24 56 25 96h-46v144h119v-106q0 -69 -31 -134zM134 437v-142h-119v142h119z" />
    <glyph glyph-name="less" unicode="&#x3c;" horiz-adv-x="286" 
d="M10 257v87l263 105v-94l-155 -55l155 -53v-95z" />
    <glyph glyph-name="equal" unicode="=" horiz-adv-x="331" 
d="M15 287h301v-83h-301v83zM15 398h301v-84h-301v84z" />
    <glyph glyph-name="greater" unicode="&#x3e;" horiz-adv-x="285" 
d="M13 355v94l262 -105v-87l-262 -105v95l154 54z" />
    <glyph glyph-name="question" unicode="?" horiz-adv-x="329" 
d="M199 167h-104v128q0 36 6.5 57t27.5 55l35 56q21 33 21 85v49q0 20 -5.5 27.5t-19.5 7.5q-15 0 -20 -8t-5 -27v-114h-124v118q0 72 28.5 112t107.5 40h27q77 0 110.5 -37.5t33.5 -107.5v-52q0 -47 -9 -78.5t-36 -66.5l-49 -67q-16 -22 -20.5 -36.5t-4.5 -48.5v-92zM207 0
v144h-119v-144h119z" />
    <glyph glyph-name="at" unicode="@" horiz-adv-x="579" 
d="M455 25l50 -59q-15 -22 -36.5 -42.5t-69 -42t-102.5 -21.5h-10q-39 0 -71.5 6t-71.5 29.5t-65.5 63t-45 113t-18.5 173.5v111q0 179 71 276.5t206 97.5h18q254 0 254 -305v-104q0 -283 -136 -283h-7q-75 0 -102 67q-36 -67 -91 -67h-5q-31 0 -55.5 31t-22.5 84l13 293
q2 40 22.5 68t54.5 28h6q40 0 76 -54l2 50h123l-22 -402q0 -18 13 -18q46 0 46 200v105q0 127 -42.5 178.5t-126.5 51.5h-18q-90 0 -139 -73.5t-50 -225.5v-107q0 -81 13 -140t31 -90.5t45 -50t48.5 -23t46.5 -4.5h10q95 0 158 86zM301 166l13 249q1 19 -3 26t-14 7
t-13.5 -7.5t-4.5 -25.5l-13 -250q-1 -19 2.5 -26.5t13.5 -7.5q18 0 19 35z" />
    <glyph glyph-name="A" unicode="A" horiz-adv-x="345" 
d="M220 0l-14 125h-80l-12 -125h-118l94 744h158l101 -744h-129zM165 508l-26 -255h54z" />
    <glyph glyph-name="B" unicode="B" horiz-adv-x="372" 
d="M19 0v744h201q68 0 98.5 -30.5t30.5 -102.5v-99q0 -42 -19.5 -69t-43.5 -35q74 -19 74 -117v-124q0 -87 -30 -127t-92 -40h-219zM184 333h-32v-215h37q18 0 26 9.5t8 39.5v121q0 24 -8.5 34.5t-30.5 10.5zM184 630h-32v-177h30q36 0 36 44v93q0 40 -34 40z" />
    <glyph glyph-name="C" unicode="C" horiz-adv-x="368" 
d="M222 164v164h132v-168q0 -75 -36 -123.5t-118 -48.5h-27q-88 0 -122.5 48t-34.5 128v420q0 75 37 122t120 47h27q87 0 120.5 -45t33.5 -119v-125h-132v120q0 43 -34 43q-33 0 -33 -43v-420q0 -45 34 -45q33 0 33 45z" />
    <glyph glyph-name="D" unicode="D" horiz-adv-x="370" 
d="M19 0v744h189q75 0 110 -37.5t35 -121.5v-420q0 -83 -33 -124t-112 -41h-189zM152 626v-502h26q22 0 30.5 12t8.5 40v400q0 27 -8 38.5t-27 11.5h-30z" />
    <glyph glyph-name="E" unicode="E" horiz-adv-x="311" 
d="M19 744h278v-131h-145v-162h114v-134h-114v-183h152v-134h-285v744z" />
    <glyph glyph-name="F" unicode="F" horiz-adv-x="312" 
d="M19 0v744h285v-130h-152v-162h112v-134h-112v-318h-133z" />
    <glyph glyph-name="G" unicode="G" horiz-adv-x="374" 
d="M147 -10h-10q-56 0 -88.5 42t-32.5 104v443q0 77 36.5 125.5t118.5 48.5h27q47 0 79 -14t47.5 -40t21.5 -54t6 -65v-82h-130v83q0 24 -7.5 35.5t-26.5 11.5q-33 0 -33 -47v-414q0 -48 36 -48q39 0 39 46v160h-49v125h177v-450h-81q-10 42 -20 71q-39 -81 -110 -81z" />
    <glyph glyph-name="H" unicode="H" horiz-adv-x="374" 
d="M152 314v-314h-133v744h133v-284h70v284h133v-744h-133v314h-70z" />
    <glyph glyph-name="I" unicode="I" horiz-adv-x="171" 
d="M152 744v-744h-133v744h133z" />
    <glyph glyph-name="J" unicode="J" horiz-adv-x="350" 
d="M11 327h128v-172q0 -33 26 -33h4q25 0 25 33v589h138v-593q0 -77 -37 -118t-104 -41h-44q-68 0 -102 34.5t-34 110.5v190z" />
    <glyph glyph-name="K" unicode="K" horiz-adv-x="372" 
d="M152 315v-315h-133v744h133v-286l87 286h131l-105 -338l116 -406h-140z" />
    <glyph glyph-name="L" unicode="L" horiz-adv-x="300" 
d="M19 744h133v-610h141v-134h-274v744z" />
    <glyph glyph-name="M" unicode="M" horiz-adv-x="457" 
d="M19 0v744h164l51 -376l51 376h153v-744h-120v440l-66 -440h-50l-67 440v-440h-116z" />
    <glyph glyph-name="N" unicode="N" horiz-adv-x="372" 
d="M19 744h125l91 -380v380h118v-744h-113l-103 408v-408h-118v744z" />
    <glyph glyph-name="O" unicode="O" horiz-adv-x="381" 
d="M365 564v-394q0 -83 -42 -132t-116 -49h-30q-78 0 -119.5 47t-41.5 134v393q0 190 160 190h30q159 0 159 -189zM226 166v408q0 49 -35 49q-36 0 -36 -49v-408q0 -44 37 -44q34 0 34 44z" />
    <glyph glyph-name="P" unicode="P" horiz-adv-x="357" 
d="M215 298h-63v-298h-133v744h189q80 0 108.5 -36t28.5 -111v-149q0 -150 -130 -150zM152 629v-210h25q21 0 27.5 11t6.5 31v124q0 22 -6.5 33t-27.5 11h-25z" />
    <glyph glyph-name="Q" unicode="Q" horiz-adv-x="381" 
d="M365 564v-394q0 -70 -30.5 -116.5t-86.5 -59.5l64 -149h-166v146q-64 9 -97 55t-33 124v393q0 190 160 190h30q159 0 159 -189zM226 166v408q0 49 -35 49q-36 0 -36 -49v-408q0 -44 37 -44q34 0 34 44z" />
    <glyph glyph-name="R" unicode="R" horiz-adv-x="365" 
d="M152 629v-188h26q20 0 28.5 9.5t8.5 35.5v101q0 25 -6.5 33.5t-26.5 8.5h-30zM152 318v-318h-133v744h210q60 0 91 -32t31 -92v-119q0 -41 -18 -66t-41 -34q57 -21 57 -88v-253q0 -35 11 -55v-5h-133q-12 16 -12 57v217q0 25 -7.5 34.5t-27.5 9.5h-28z" />
    <glyph glyph-name="S" unicode="S" horiz-adv-x="355" 
d="M166 753h27q76 0 109.5 -35.5t33.5 -110.5v-100h-128v93q0 39 -29 39t-29 -40v-17q0 -50 41 -96l76 -85q47 -53 64 -96t17 -95v-35q0 -86 -41 -135t-121 -49h-26q-152 0 -152 154v134h131v-119q0 -45 34 -45q33 0 33 54v14q0 41 -7.5 63t-35.5 53l-77 85q-71 77 -71 189
v32q0 71 40.5 109.5t110.5 38.5z" />
    <glyph glyph-name="T" unicode="T" 
d="M6 744h323v-131h-95v-613h-133v613h-95v131z" />
    <glyph glyph-name="U" unicode="U" horiz-adv-x="375" 
d="M18 173v571h137v-576q0 -46 33 -46q32 0 32 46v576h137v-571q0 -90 -41 -137t-113 -47h-33q-73 0 -112.5 46.5t-39.5 137.5z" />
    <glyph glyph-name="V" unicode="V" horiz-adv-x="357" 
d="M96 0l-99 744h138l49 -499l49 499h127l-95 -744h-169z" />
    <glyph glyph-name="W" unicode="W" horiz-adv-x="568" 
d="M225 744h127l47 -472l44 472h128l-95 -744h-151l-39 409l-39 -409h-157l-93 744h138l42 -477z" />
    <glyph glyph-name="X" unicode="X" horiz-adv-x="358" 
d="M89 398l-81 346h134l41 -223l40 223h126l-79 -346l93 -398h-134l-51 258l-53 -258h-130z" />
    <glyph glyph-name="Y" unicode="Y" horiz-adv-x="327" 
d="M335 744l-100 -451v-293h-133v288l-110 456h133l45 -264l45 264h120z" />
    <glyph glyph-name="Z" unicode="Z" horiz-adv-x="330" 
d="M18 744h294v-118l-162 -496h173v-130h-316v120l162 496h-151v128z" />
    <glyph glyph-name="bracketleft" unicode="[" horiz-adv-x="196" 
d="M192 808v-95h-54v-748h54v-96h-160v939h160z" />
    <glyph glyph-name="backslash" unicode="\" horiz-adv-x="215" 
d="M131 -131l-131 939h94l131 -939h-94z" />
    <glyph glyph-name="bracketright" unicode="]" horiz-adv-x="196" 
d="M4 -131v96h54v748h-54v95h160v-939h-160z" />
    <glyph glyph-name="asciicircum" unicode="^" horiz-adv-x="233" 
d="M167 744l66 -311h-89l-29 164l-27 -164h-88l65 311h102z" />
    <glyph glyph-name="underscore" unicode="_" horiz-adv-x="329" 
d="M0 -115v95h329v-95h-329z" />
    <glyph glyph-name="grave" unicode="`" horiz-adv-x="338" 
d="M201 700l41 -136h-102l-45 136h106z" />
    <glyph glyph-name="a" unicode="a" 
d="M180 134v131q-24 -13 -33 -25q-12 -15 -12 -41v-65q0 -32 21 -32q24 0 24 32zM12 88v117q0 75 56 110q13 8 55 28.5t49 24.5q8 5 8 20v29q0 29 -22 29h-4q-22 0 -22 -29v-53h-114v74q0 44 28 75t98 31h23q75 0 105.5 -30.5t30.5 -87.5v-297q0 -9 3.5 -12t15.5 -3h14v-114
h-119q-37 0 -37 61q-36 -66 -91 -66h-4q-35 0 -54 27.5t-19 65.5z" />
    <glyph glyph-name="b" unicode="b" horiz-adv-x="336" 
d="M16 744h128v-266q40 66 91 66h6q37 0 58.5 -28.5t21.5 -66.5v-338q0 -46 -28.5 -83t-70.5 -37h-2q-26 0 -47 14.5t-30.5 28t-23.5 38.5q-13 -46 -13 -72h-90v744zM144 399v-262q0 -35 24 -35t24 33v264q0 35 -25 35q-23 0 -23 -35z" />
    <glyph glyph-name="c" unicode="c" horiz-adv-x="318" 
d="M188 241h119v-116q0 -60 -33 -98t-99 -38h-21q-72 0 -106.5 38t-34.5 102v271q0 148 139 148h25q130 0 130 -130v-89h-118v76q0 38 -24 38q-23 0 -23 -37v-271q0 -33 22 -33q24 0 24 31v108z" />
    <glyph glyph-name="d" unicode="d" horiz-adv-x="340" 
d="M196 744h128v-744h-128v60q-12 -26 -35.5 -48.5t-53.5 -22.5h-2q-40 0 -65 33.5t-25 81.5v333q0 42 21.5 74.5t58.5 32.5h5q55 0 96 -66v266zM196 143v249q0 42 -27 42q-25 0 -25 -37v-259q0 -37 25 -37q27 0 27 42z" />
    <glyph glyph-name="e" unicode="e" horiz-adv-x="319" 
d="M172 548q135 0 135 -137v-159h-171v-117q0 -33 25 -33q23 0 23 33v80h123v-98q0 -61 -38 -94t-97 -33h-24q-62 0 -98.5 33t-36.5 94v296q0 59 33 97t102 38h24zM136 413v-65h52v65q0 36 -26 36q-16 0 -21 -8.5t-5 -27.5z" />
    <glyph glyph-name="f" unicode="f" horiz-adv-x="270" 
d="M263 744v-113h-49q-12 0 -16 -5t-4 -18v-70h69v-119h-69v-419h-127v419h-63v119h63v132q0 30 21 52t61 22h114z" />
    <glyph glyph-name="g" unicode="g" horiz-adv-x="338" 
d="M194 -65v125q-38 -70 -87 -70q-40 0 -66 29t-26 76v321q0 57 22 91t63 34h1q53 0 95 -68v65h126v-612q0 -51 -32 -86t-113 -35h-18q-139 0 -139 98v72h123v-44q0 -23 22 -23h5q24 0 24 27zM194 129v270q0 34 -25 34q-24 0 -24 -33v-272q0 -32 24 -32q25 0 25 33z" />
    <glyph glyph-name="h" unicode="h" horiz-adv-x="340" 
d="M16 0v744h128v-268q43 64 96 64h5q36 0 57.5 -23.5t21.5 -60.5v-456h-129v398q0 30 -25 30q-26 0 -26 -34v-394h-128z" />
    <glyph glyph-name="i" unicode="i" horiz-adv-x="160" 
d="M144 538v-538h-128v538h128zM144 690v-126h-128v126h128z" />
    <glyph glyph-name="j" unicode="j" horiz-adv-x="161" 
d="M145 690v-126h-128v126h128zM-53 -69h52q10 0 14 4.5t4 16.5v586h128v-654q0 -30 -20.5 -51t-53.5 -21h-124v119z" />
    <glyph glyph-name="k" unicode="k" horiz-adv-x="342" 
d="M144 351l75 187h122l-95 -226l102 -312h-127l-77 239v-239h-128v744h128v-393z" />
    <glyph glyph-name="l" unicode="l" horiz-adv-x="160" 
d="M144 744v-744h-128v744h128z" />
    <glyph glyph-name="m" unicode="m" horiz-adv-x="512" 
d="M16 0v538h127v-63q43 67 92 67h4q31 0 52 -19t27 -47q44 66 96 66h5q36 0 56.5 -24.5t20.5 -61.5v-456h-128v392q0 36 -24 36q-22 0 -24 -28v-400h-128v392q0 36 -25 36q-23 0 -23 -36v-392h-128z" />
    <glyph glyph-name="n" unicode="n" horiz-adv-x="340" 
d="M16 0v538h127v-65q45 67 97 67h7q40 0 58.5 -29t18.5 -61v-450h-129v396q0 32 -25 32q-26 0 -26 -36v-392h-128z" />
    <glyph glyph-name="o" unicode="o" horiz-adv-x="337" 
d="M13 142v255q0 72 37 111.5t103 39.5h30q66 0 103.5 -39t37.5 -110v-255q0 -67 -38 -110.5t-103 -43.5h-30q-70 0 -105 42t-35 110zM142 400v-256q0 -38 26 -38q27 0 27 38v256q0 37 -27 37q-26 0 -26 -37z" />
    <glyph glyph-name="p" unicode="p" horiz-adv-x="340" 
d="M16 538h128v-59q40 65 94 65h2q42 0 63.5 -31.5t21.5 -83.5v-321q0 -53 -26.5 -86t-63.5 -33h-2q-51 0 -89 58v-235h-128v726zM144 402v-272q0 -36 25 -36t25 35v273q0 34 -25 34t-25 -34z" />
    <glyph glyph-name="q" unicode="q" horiz-adv-x="340" 
d="M236 538h88v-726h-128v247q-37 -69 -90 -69h-6q-37 0 -61 34.5t-24 78.5v310q0 57 23 94t76 37h8q34 0 56 -22.5t42 -61.5q11 30 16 78zM196 135v263q0 36 -27 36q-24 0 -24 -36v-267q0 -35 25 -35q26 0 26 39z" />
    <glyph glyph-name="r" unicode="r" horiz-adv-x="304" 
d="M143 538v-67q29 70 85 70h6q61 0 61 -66v-195h-119v123q0 26 -16 26t-16 -26v-403h-128v538h127z" />
    <glyph glyph-name="s" unicode="s" horiz-adv-x="298" 
d="M287 446v-73h-114v56q0 28 -21 28t-21 -28v-11q0 -29 23 -52l71 -70q40 -40 54.5 -72.5t14.5 -76.5v-18q0 -60 -33.5 -99t-99.5 -39h-26q-66 0 -98 32.5t-32 84.5v88h118v-72q0 -30 23 -30h1q21 0 21 31v12q0 40 -28 67l-68 65q-34 33 -47 65.5t-13 76.5v17q0 56 32 88
t94 32h27q122 0 122 -102z" />
    <glyph glyph-name="t" unicode="t" horiz-adv-x="263" 
d="M254 0h-128q-26 0 -43.5 19t-17.5 47v353h-61v119h61v178h127v-178h62v-119h-62v-276q0 -12 3.5 -17t15.5 -5h43v-121z" />
    <glyph glyph-name="u" unicode="u" 
d="M319 538v-538h-124v66q-45 -68 -97 -68h-4q-36 0 -57 28.5t-21 64.5v447h129v-395q0 -33 22 -33q25 0 25 36v392h127z" />
    <glyph glyph-name="v" unicode="v" horiz-adv-x="309" 
d="M78 0l-82 538h124l35 -343l36 343h122l-88 -538h-147z" />
    <glyph glyph-name="w" unicode="w" horiz-adv-x="494" 
d="M214 0h-137l-81 538h126l35 -333l37 333h113l36 -337l35 337h120l-82 -538h-133l-35 292z" />
    <glyph glyph-name="x" unicode="x" horiz-adv-x="311" 
d="M73 289l-72 249h122l35 -154l31 154h117l-68 -245l77 -293h-122l-38 170l-40 -170h-119z" />
    <glyph glyph-name="y" unicode="y" horiz-adv-x="311" 
d="M89 9l-93 529h126l36 -297l35 297h123l-113 -645q-14 -81 -74 -81h-116v119h53q12 0 16 6t6 21l2 21q1 14 -1 30z" />
    <glyph glyph-name="z" unicode="z" horiz-adv-x="266" 
d="M14 538h241v-106l-124 -318h131v-114h-258v107l125 319h-115v112z" />
    <glyph glyph-name="braceleft" unicode="{" horiz-adv-x="206" 
d="M170 256q0 -26 -14 -123t-14 -120q0 -53 43 -53h17v-91h-44q-60 0 -92 30.5t-32 87.5q0 23 15.5 125.5t15.5 140.5t-30 38h-20v100h20q30 0 30 34q0 40 -15.5 142t-15.5 128q0 56 32 84.5t92 28.5h44v-92h-21q-39 0 -39 -43q0 -23 14 -119.5t14 -121.5q0 -37 -11 -58.5
t-40 -32.5q51 -20 51 -85z" />
    <glyph glyph-name="bar" unicode="|" horiz-adv-x="167" 
d="M129 808v-939h-91v939h91z" />
    <glyph glyph-name="braceright" unicode="}" horiz-adv-x="206" 
d="M35 432q0 26 14.5 122t14.5 119q0 43 -39 43h-21v92h44q59 0 91.5 -28.5t32.5 -84.5q0 -26 -16 -128t-16 -142q0 -34 30 -34h21v-100h-21q-30 0 -30 -38t16 -140.5t16 -125.5q0 -57 -32 -87.5t-92 -30.5h-44v91h16q44 0 44 53q0 23 -14.5 119.5t-14.5 123.5q0 65 51 85
q-29 11 -40 32.5t-11 58.5z" />
    <glyph glyph-name="asciitilde" unicode="~" horiz-adv-x="280" 
d="M132 345q-26 29 -32 29q-7 0 -7 -11v-62h-84v118q0 31 17.5 53t49.5 22q35 0 74 -42q24 -27 30 -27q7 0 7 10v63h84v-119q0 -33 -19 -54t-47 -21q-21 0 -36.5 9t-36.5 32z" />
    <glyph glyph-name="exclamdown" unicode="&#xa1;" horiz-adv-x="160" 
d="M20 394v144h119v-144h-119zM152 -206h-145l47 577h51z" />
    <glyph glyph-name="cent" unicode="&#xa2;" horiz-adv-x="323" 
d="M313 242v-117q0 -57 -33 -96t-96 -40v-64h-34v64q-69 1 -103 39.5t-34 100.5v271q0 69 34 108t103 40v64h34v-64q67 -1 98 -36t31 -94v-88h-108v77q0 31 -21 39v-350q20 10 20 38v108h109zM130 408v-274q0 -31 20 -39v351q-20 -6 -20 -38z" />
    <glyph glyph-name="sterling" unicode="&#xa3;" horiz-adv-x="411" 
d="M205 252q0 -77 -56 -135h125v132h124v-249h-392v89q47 34 62.5 65t15.5 87q0 16 -5 69h-73v110h62q-7 77 -7 101v69q0 163 150 163h30q137 0 137 -142v-128h-123v107q0 42 -29 42q-17 0 -23.5 -9.5t-6.5 -32.5v-82q0 -20 2 -88h126v-110h-120q1 -22 1 -58z" />
    <glyph glyph-name="yen" unicode="&#xa5;" horiz-adv-x="354" 
d="M243 218v-218h-133v218h-99v84h99v26h-99v84h85l-96 332h131l48 -241l45 241h119l-88 -332h88v-84h-100v-26h100v-84h-100z" />
    <glyph glyph-name="brokenbar" unicode="&#xa6;" horiz-adv-x="167" 
d="M129 343v-474h-91v474h91zM129 808v-426h-91v426h91z" />
    <glyph glyph-name="section" unicode="&#xa7;" horiz-adv-x="401" 
d="M392 251q0 -86 -85 -111q29 -30 38.5 -54.5t9.5 -65.5v-65q0 -70 -37 -110t-111 -40h-31q-137 0 -137 144v104h128v-99q0 -34 28 -34q25 0 25 36v44q0 30 -8 47t-35 40l-88 69q-49 38 -64.5 69.5t-15.5 85.5v33q0 81 82 104q-42 47 -42 139v19q0 147 153 147h18
q76 0 109 -34.5t33 -111.5v-79h-126v77q0 21 -6 28.5t-21 7.5q-26 0 -26 -36v-17q0 -34 7.5 -50.5t32.5 -38.5q57 -44 86 -68q52 -44 67.5 -74t15.5 -82v-24zM222 327l-67 52q-24 -4 -24 -33v-17q-1 -21 7.5 -34t34.5 -33l68 -53q12 2 18 10.5t6 29.5v10q0 21 -8 33.5
t-35 34.5z" />
    <glyph glyph-name="dieresis" unicode="&#xa8;" horiz-adv-x="338" 
d="M157 670v-106h-100v106h100zM281 670v-106h-100v106h100z" />
    <glyph glyph-name="copyright" unicode="&#xa9;" horiz-adv-x="515" 
d="M264 -11h-10q-237 0 -237 255v258q0 123 62.5 188t175.5 65h12q113 0 172 -63.5t59 -189.5v-258q0 -129 -63.5 -192t-170.5 -63zM256 56h8q158 0 158 203v230q0 199 -156 199h-10q-86 0 -123.5 -50t-37.5 -149v-230q0 -203 161 -203zM262 207q17 0 17 26v107h104v-117
q0 -49 -31 -81t-81 -32h-18q-57 0 -87 33.5t-30 88.5v276q0 61 28.5 94.5t85.5 33.5h22q110 0 110 -115v-82h-104v75q0 9 -1 14t-4.5 8.5t-10.5 3.5q-18 0 -18 -26v-281q0 -26 18 -26z" />
    <glyph glyph-name="ordfeminine" unicode="&#xaa;" horiz-adv-x="202" 
d="M183 677v-151q0 -8 8 -8h11v-67h-71q-23 0 -23 37q-20 -40 -55 -40q-21 0 -33 16t-12 39v53q0 40 34 62q8 5 32.5 17.5t28.5 14.5q5 3 5 12v9q0 16 -12 16h-1q-12 0 -12 -17v-20h-72v34q0 26 17 45t59 19h14q46 0 64 -18.5t18 -52.5zM108 589q-10 -4 -17 -11t-7 -23v-28
q0 -17 11 -17q13 0 13 18v61z" />
    <glyph glyph-name="guillemotleft" unicode="&#xab;" horiz-adv-x="269" 
d="M100 286l50 -167h-92l-48 137v60l48 135h92zM220 286l43 -167h-93l-48 167l48 165h94z" />
    <glyph glyph-name="registered" unicode="&#xae;" horiz-adv-x="277" 
d="M144 399h-8q-58 0 -91.5 35t-33.5 99v86q0 60 33 95.5t92 35.5h9q57 0 89 -35t32 -95v-87q0 -61 -35 -97.5t-87 -36.5zM136 436h8q80 0 80 102v77q0 98 -79 98h-9q-45 0 -64 -24.5t-19 -76.5v-74q0 -102 83 -102zM132 560v-93h-51v220h76q40 0 40 -40v-30q0 -22 -19 -32
q19 -5 19 -29v-65q0 -13 3 -19v-5h-49q-3 7 -3 20v60q0 13 -10 13h-6zM132 650v-51h7q9 0 9 13v26q0 12 -9 12h-7z" />
    <glyph glyph-name="macron" unicode="&#xaf;" horiz-adv-x="338" 
d="M74 576v87h191v-87h-191z" />
    <glyph glyph-name="degree" unicode="&#xb0;" horiz-adv-x="206" 
d="M3 649q0 42 28.5 70t72.5 28q42 0 70.5 -28.5t28.5 -69.5t-28 -69t-71 -28q-44 0 -72.5 27.5t-28.5 69.5zM67 650q0 -38 36 -38t36 38q0 16 -10 26.5t-26 10.5q-17 0 -26.5 -10.5t-9.5 -26.5z" />
    <glyph glyph-name="acute" unicode="&#xb4;" horiz-adv-x="338" 
d="M95 564l42 136h105l-44 -136h-103z" />
    <glyph glyph-name="paragraph" unicode="&#xb6;" horiz-adv-x="373" 
d="M122 744h249v-98h-39v-646h-85v646h-34v-646h-85v342h-6q-53 0 -82 26.5t-29 76.5v199q0 46 30 73t81 27z" />
    <glyph glyph-name="periodcentered" unicode="&#xb7;" horiz-adv-x="145" 
d="M132 388v-144h-119v144h119z" />
    <glyph glyph-name="cedilla" unicode="&#xb8;" horiz-adv-x="338" 
d="M152 -188h-61v63h50q22 0 22 17v1q0 15 -22 15h-35v92h60v-36h3q79 -3 79 -72v-3q0 -38 -26 -57.5t-70 -19.5z" />
    <glyph glyph-name="ordmasculine" unicode="&#xba;" horiz-adv-x="208" 
d="M113 448h-18q-84 0 -84 92v115q0 44 22 68.5t62 24.5h18q39 0 61.5 -23.5t22.5 -68.5v-116q0 -42 -23 -67t-61 -25zM90 535q0 -19 14 -19t14 19v127q0 19 -14 19t-14 -19v-127z" />
    <glyph glyph-name="guillemotright" unicode="&#xbb;" horiz-adv-x="268" 
d="M118 119l50 166l-50 166h93l47 -137v-59l-48 -136h-92zM5 119l44 166l-44 166h93l48 -166l-48 -166h-93z" />
    <glyph glyph-name="onequarter" unicode="&#xbc;" horiz-adv-x="375" 
d="M47 638h-43v66q29 0 40.5 10.5t14.5 29.5h72v-340h-84v234zM275 744h81l-267 -744h-81zM172 59v58q55 134 86 225h83v-211h28v-72h-28v-59h-80v59h-89zM230 131h31v87q-14 -47 -31 -87z" />
    <glyph glyph-name="onehalf" unicode="&#xbd;" horiz-adv-x="423" 
d="M275 744h81l-267 -744h-81zM414 0h-206v44q0 28 15 55t65 83q22 25 26.5 36.5t4.5 30.5v16q0 17 -14 17q-13 0 -13 -17v-53h-78v57q0 34 19.5 56.5t63.5 22.5h15q94 0 94 -79v-18q0 -34 -14 -58.5t-49 -56.5q-41 -37 -48.5 -46.5t-7.5 -21.5h53v54h74v-122zM47 638h-43
v66q29 0 40.5 10.5t14.5 29.5h72v-340h-84v234z" />
    <glyph glyph-name="threequarters" unicode="&#xbe;" horiz-adv-x="428" 
d="M328 744h81l-267 -744h-81zM87 630h-77v36q0 84 85 84h12q88 0 88 -81v-23q0 -42 -30 -54q37 -14 37 -54v-55q0 -86 -92 -86h-14q-87 0 -87 79v51h80v-46q0 -17 13 -17q12 0 12 17v49q0 15 -13 15h-39v69h37q14 0 14 16v38q0 18 -13 18t-13 -18v-38zM225 59v58
q55 134 86 225h83v-211h28v-72h-28v-59h-80v59h-89zM283 131h31v87q-14 -47 -31 -87z" />
    <glyph glyph-name="questiondown" unicode="&#xbf;" horiz-adv-x="329" 
d="M130 371h104v-128q0 -36 -6.5 -57t-27.5 -55l-35 -56q-21 -33 -21 -85v-49q0 -20 5.5 -27.5t19.5 -7.5q15 0 20 8t5 27v114h124v-118q0 -72 -28.5 -112t-107.5 -40h-27q-77 0 -110.5 37.5t-33.5 107.5v52q0 47 9 78.5t36 66.5l49 67q16 22 20.5 36.5t4.5 48.5v92z
M122 394v144h119v-144h-119z" />
    <glyph glyph-name="Agrave" unicode="&#xc0;" horiz-adv-x="345" 
d="M220 0l-14 125h-80l-12 -125h-118l94 744h158l101 -744h-129zM180 885l43 -115h-104l-44 115h105zM165 508l-26 -255h54z" />
    <glyph glyph-name="Aacute" unicode="&#xc1;" horiz-adv-x="345" 
d="M220 0l-14 125h-80l-12 -125h-118l94 744h158l101 -744h-129zM116 770l43 115h106l-45 -115h-104zM165 508l-26 -255h54z" />
    <glyph glyph-name="Acircumflex" unicode="&#xc2;" horiz-adv-x="345" 
d="M220 0l-14 125h-80l-12 -125h-118l94 744h158l101 -744h-129zM219 885l66 -115h-89l-28 47l-27 -47h-89l65 115h102zM165 508l-26 -255h54z" />
    <glyph glyph-name="Atilde" unicode="&#xc3;" horiz-adv-x="345" 
d="M220 0l-14 125h-80l-12 -125h-118l94 744h158l101 -744h-129zM168 787q-22 9 -25 9q-8 0 -8 -11v-16h-72v34q0 37 15 57t42 20q25 0 54 -13q21 -10 27 -10t6 10v16h72v-34q0 -38 -17 -57t-40 -19q-22 0 -54 14zM165 508l-26 -255h54z" />
    <glyph glyph-name="Adieresis" unicode="&#xc4;" horiz-adv-x="345" 
d="M220 0l-14 125h-80l-12 -125h-118l94 744h158l101 -744h-129zM280 876v-106h-100v106h100zM155 876v-106h-100v106h100zM165 508l-26 -255h54z" />
    <glyph glyph-name="Aring" unicode="&#xc5;" horiz-adv-x="345" 
d="M220 0l-14 125h-80l-12 -125h-118l94 744h158l101 -744h-129zM167 765q-35 0 -57.5 22t-22.5 57t22.5 57t57.5 22t57.5 -22t22.5 -57t-22.5 -57t-57.5 -22zM165 508l-26 -255h54zM167 811q15 0 23.5 9.5t8.5 23.5t-8.5 23.5t-23.5 9.5t-23.5 -9.5t-8.5 -23.5t8.5 -23.5
t23.5 -9.5z" />
    <glyph glyph-name="AE" unicode="&#xc6;" horiz-adv-x="511" 
d="M504 0h-281v131h-81l-22 -131h-128l140 744h362v-132h-138v-161h107v-135h-107v-182h148v-134zM164 258h59v344z" />
    <glyph glyph-name="Ccedilla" unicode="&#xc7;" horiz-adv-x="368" 
d="M178 -188h-61v63h50q22 0 22 17v1q0 15 -22 15h-35v83q-116 20 -116 173v420q0 75 37 122t120 47h27q87 0 120.5 -45t33.5 -119v-125h-132v120q0 43 -34 43q-33 0 -33 -43v-420q0 -45 34 -45q33 0 33 45v164h132v-168q0 -75 -36 -123.5t-118 -48.5h-8v-24h3q79 -3 79 -72
v-3q0 -38 -26 -57.5t-70 -19.5z" />
    <glyph glyph-name="Egrave" unicode="&#xc8;" horiz-adv-x="311" 
d="M19 744h278v-131h-145v-162h114v-134h-114v-183h152v-134h-285v744zM174 885l43 -115h-104l-44 115h105z" />
    <glyph glyph-name="Eacute" unicode="&#xc9;" horiz-adv-x="311" 
d="M19 744h278v-131h-145v-162h114v-134h-114v-183h152v-134h-285v744zM106 770l43 115h106l-45 -115h-104z" />
    <glyph glyph-name="Ecircumflex" unicode="&#xca;" horiz-adv-x="311" 
d="M19 744h278v-131h-145v-162h114v-134h-114v-183h152v-134h-285v744zM211 885l66 -115h-89l-28 47l-27 -47h-89l65 115h102z" />
    <glyph glyph-name="Edieresis" unicode="&#xcb;" horiz-adv-x="311" 
d="M19 744h278v-131h-145v-162h114v-134h-114v-183h152v-134h-285v744zM273 876v-106h-100v106h100zM148 876v-106h-100v106h100z" />
    <glyph glyph-name="Igrave" unicode="&#xcc;" horiz-adv-x="171" 
d="M152 0v744h-133v-744h133zM95 885l43 -115h-104l-44 115h105z" />
    <glyph glyph-name="Iacute" unicode="&#xcd;" horiz-adv-x="171" 
d="M152 0v744h-133v-744h133zM33 770l43 115h106l-45 -115h-104z" />
    <glyph glyph-name="Icircumflex" unicode="&#xce;" horiz-adv-x="171" 
d="M152 0v744h-133v-744h133zM134 883l66 -115h-89l-28 47l-27 -47h-89l65 115h102z" />
    <glyph glyph-name="Idieresis" unicode="&#xcf;" horiz-adv-x="171" 
d="M152 744v-744h-133v744h133zM198 876v-106h-100v106h100zM73 876v-106h-100v106h100z" />
    <glyph glyph-name="Eth" unicode="&#xd0;" horiz-adv-x="373" 
d="M23 443v301h189q75 0 110 -37.5t35 -121.5v-420q0 -83 -33 -124t-112 -41h-189v325h-25v118h25zM156 325v-201h26q22 0 30.5 12t8.5 40v400q0 27 -8 38.5t-27 11.5h-30v-183h43v-118h-43z" />
    <glyph glyph-name="Ntilde" unicode="&#xd1;" horiz-adv-x="372" 
d="M19 744h125l91 -380v380h118v-744h-113l-103 408v-408h-118v744zM193 787q-22 9 -25 9q-8 0 -8 -11v-16h-72v34q0 37 15 57t42 20q25 0 54 -13q21 -10 27 -10t6 10v16h72v-34q0 -38 -17 -57t-40 -19q-22 0 -54 14z" />
    <glyph glyph-name="Ograve" unicode="&#xd2;" horiz-adv-x="381" 
d="M200 885l43 -114h-104l-44 114h105zM365 170v394q0 189 -159 189h-30q-160 0 -160 -190v-393q0 -87 41.5 -134t119.5 -47h30q74 0 116 49t42 132zM226 574v-408q0 -44 -34 -44q-37 0 -37 44v408q0 49 36 49q35 0 35 -49z" />
    <glyph glyph-name="Oacute" unicode="&#xd3;" horiz-adv-x="381" 
d="M138 771l43 114h106l-45 -114h-104zM365 170v394q0 189 -159 189h-30q-160 0 -160 -190v-393q0 -87 41.5 -134t119.5 -47h30q74 0 116 49t42 132zM226 574v-408q0 -44 -34 -44q-37 0 -37 44v408q0 49 36 49q35 0 35 -49z" />
    <glyph glyph-name="Ocircumflex" unicode="&#xd4;" horiz-adv-x="381" 
d="M241 885l66 -114h-89l-28 46l-27 -46h-89l65 114h102zM365 170v394q0 189 -159 189h-30q-160 0 -160 -190v-393q0 -87 41.5 -134t119.5 -47h30q74 0 116 49t42 132zM226 574v-408q0 -44 -34 -44q-37 0 -37 44v408q0 49 36 49q35 0 35 -49z" />
    <glyph glyph-name="Otilde" unicode="&#xd5;" horiz-adv-x="381" 
d="M365 564v-394q0 -83 -42 -132t-116 -49h-30q-78 0 -119.5 47t-41.5 134v393q0 190 160 190h30q159 0 159 -189zM226 166v408q0 49 -35 49q-36 0 -36 -49v-408q0 -44 37 -44q34 0 34 44zM188 788q-22 9 -25 9q-8 0 -8 -11v-16h-72v34q0 37 15 57t42 20q25 0 54 -13
q21 -10 27 -10t6 10v16h72v-34q0 -38 -17 -57t-40 -19q-22 0 -54 14z" />
    <glyph glyph-name="Odieresis" unicode="&#xd6;" horiz-adv-x="381" 
d="M178 876v-105h-100v105h100zM303 876v-105h-100v105h100zM365 564v-394q0 -83 -42 -132t-116 -49h-30q-78 0 -119.5 47t-41.5 134v393q0 190 160 190h30q159 0 159 -189zM226 166v408q0 49 -35 49q-36 0 -36 -49v-408q0 -44 37 -44q34 0 34 44z" />
    <glyph glyph-name="multiply" unicode="&#xd7;" horiz-adv-x="311" 
d="M241 149l-86 87l-84 -87l-63 60l85 89l-86 88l65 66l85 -88l84 88l63 -62l-86 -89l86 -87z" />
    <glyph glyph-name="Oslash" unicode="&#xd8;" horiz-adv-x="377" 
d="M361 564v-394q0 -83 -42 -132t-116 -49h-25q-58 0 -96 35l-10 -24h-74l33 82q-15 40 -15 88v393q0 190 160 190h25q57 0 93 -33l10 24h74l-33 -83q16 -38 16 -97zM190 122q36 0 36 44v228l-75 -206v-22q0 -44 39 -44zM189 623q-38 0 -38 -49v-224l75 209v15q0 49 -37 49z
" />
    <glyph glyph-name="Ugrave" unicode="&#xd9;" horiz-adv-x="375" 
d="M18 173v571h137v-576q0 -46 33 -46q32 0 32 46v576h137v-571q0 -90 -41 -137t-113 -47h-33q-73 0 -112.5 46.5t-39.5 137.5zM198 885l43 -115h-104l-44 115h105z" />
    <glyph glyph-name="Uacute" unicode="&#xda;" horiz-adv-x="375" 
d="M18 173v571h137v-576q0 -46 33 -46q32 0 32 46v576h137v-571q0 -90 -41 -137t-113 -47h-33q-73 0 -112.5 46.5t-39.5 137.5zM134 770l43 115h106l-45 -115h-104z" />
    <glyph glyph-name="Ucircumflex" unicode="&#xdb;" horiz-adv-x="375" 
d="M18 173v571h137v-576q0 -46 33 -46q32 0 32 46v576h137v-571q0 -90 -41 -137t-113 -47h-33q-73 0 -112.5 46.5t-39.5 137.5zM238 885l66 -115h-89l-28 47l-27 -47h-89l65 115h102z" />
    <glyph glyph-name="Udieresis" unicode="&#xdc;" horiz-adv-x="375" 
d="M18 173v571h137v-576q0 -46 33 -46q32 0 32 46v576h137v-571q0 -90 -41 -137t-113 -47h-33q-73 0 -112.5 46.5t-39.5 137.5zM175 876v-106h-100v106h100zM300 876v-106h-100v106h100z" />
    <glyph glyph-name="Yacute" unicode="&#xdd;" horiz-adv-x="327" 
d="M235 293l100 451h-120l-45 -264l-45 264h-133l110 -456v-288h133v293zM114 770l43 115h106l-45 -115h-104z" />
    <glyph glyph-name="Thorn" unicode="&#xde;" horiz-adv-x="362" 
d="M221 188h-69v-188h-133v744h133v-150h69q67 0 98.5 -31t31.5 -102v-131q0 -142 -130 -142zM152 485v-187h31q19 0 26.5 9.5t7.5 30.5v106q0 22 -7.5 31.5t-27.5 9.5h-30z" />
    <glyph glyph-name="germandbls" unicode="&#xdf;" horiz-adv-x="338" 
d="M265 443q32 -12 47 -35t15 -66v-212q0 -67 -27 -98.5t-93 -31.5h-47v119h16q19 0 19 25v180q0 24 -20 24h-15v118h14q19 0 19 28v110q0 30 -23 30h-6q-21 0 -21 -29v-605h-127v606q0 64 34.5 101t102.5 37h27q71 0 103.5 -33.5t32.5 -99.5v-86q0 -31 -15.5 -53t-35.5 -29
z" />
    <glyph glyph-name="agrave" unicode="&#xe0;" 
d="M168 700l41 -136h-102l-45 136h106zM180 134v131q-24 -13 -33 -25q-12 -15 -12 -41v-65q0 -32 21 -32q24 0 24 32zM12 88v117q0 75 56 110q13 8 55 28.5t49 24.5q8 5 8 20v29q0 29 -22 29h-4q-22 0 -22 -29v-53h-114v74q0 44 28 75t98 31h23q75 0 105.5 -30.5t30.5 -87.5
v-297q0 -9 3.5 -12t15.5 -3h14v-114h-119q-37 0 -37 61q-36 -66 -91 -66h-4q-35 0 -54 27.5t-19 65.5z" />
    <glyph glyph-name="aacute" unicode="&#xe1;" 
d="M106 564l42 136h105l-44 -136h-103zM180 134v131q-24 -13 -33 -25q-12 -15 -12 -41v-65q0 -32 21 -32q24 0 24 32zM12 88v117q0 75 56 110q13 8 55 28.5t49 24.5q8 5 8 20v29q0 29 -22 29h-4q-22 0 -22 -29v-53h-114v74q0 44 28 75t98 31h23q75 0 105.5 -30.5t30.5 -87.5
v-297q0 -9 3.5 -12t15.5 -3h14v-114h-119q-37 0 -37 61q-36 -66 -91 -66h-4q-35 0 -54 27.5t-19 65.5z" />
    <glyph glyph-name="acircumflex" unicode="&#xe2;" 
d="M212 700l62 -136h-91l-24 62l-25 -62h-89l61 136h106zM180 134v131q-24 -13 -33 -25q-12 -15 -12 -41v-65q0 -32 21 -32q24 0 24 32zM12 88v117q0 75 56 110q13 8 55 28.5t49 24.5q8 5 8 20v29q0 29 -22 29h-4q-22 0 -22 -29v-53h-114v74q0 44 28 75t98 31h23
q75 0 105.5 -30.5t30.5 -87.5v-297q0 -9 3.5 -12t15.5 -3h14v-114h-119q-37 0 -37 61q-36 -66 -91 -66h-4q-35 0 -54 27.5t-19 65.5z" />
    <glyph glyph-name="atilde" unicode="&#xe3;" 
d="M12 88v117q0 75 56 110q13 8 55 28.5t49 24.5q8 5 8 20v29q0 29 -22 29h-4q-22 0 -22 -29v-53h-114v74q0 44 28 75t98 31h23q75 0 105.5 -30.5t30.5 -87.5v-297q0 -9 3.5 -12t15.5 -3h14v-114h-119q-37 0 -37 61q-36 -66 -91 -66h-4q-35 0 -54 27.5t-19 65.5zM191 678h73
v-56q0 -25 -15 -42t-39 -17q-22 0 -60 19q-19 9 -23 9q-7 0 -7 -12v-16h-72v47q0 31 14.5 49.5t40.5 18.5q20 0 59 -18q19 -8 23 -8q6 0 6 10v16zM180 134v131q-24 -13 -33 -25q-12 -15 -12 -41v-65q0 -32 21 -32q24 0 24 32z" />
    <glyph glyph-name="adieresis" unicode="&#xe4;" 
d="M180 134v131q-24 -13 -33 -25q-12 -15 -12 -41v-65q0 -32 21 -32q24 0 24 32zM12 88v117q0 75 56 110q13 8 55 28.5t49 24.5q8 5 8 20v29q0 29 -22 29h-4q-22 0 -22 -29v-53h-114v74q0 44 28 75t98 31h23q75 0 105.5 -30.5t30.5 -87.5v-297q0 -9 3.5 -12t15.5 -3h14v-114
h-119q-37 0 -37 61q-36 -66 -91 -66h-4q-35 0 -54 27.5t-19 65.5zM144 670v-106h-100v106h100zM268 670v-106h-100v106h100z" />
    <glyph glyph-name="aring" unicode="&#xe5;" 
d="M180 134v131q-24 -13 -33 -25q-12 -15 -12 -41v-65q0 -32 21 -32q24 0 24 32zM12 88v117q0 75 56 110q13 8 55 28.5t49 24.5q8 5 8 20v29q0 29 -22 29h-4q-22 0 -22 -29v-53h-114v74q0 44 28 75t98 31h23q75 0 105.5 -30.5t30.5 -87.5v-297q0 -9 3.5 -12t15.5 -3h14v-114
h-119q-37 0 -37 61q-36 -66 -91 -66h-4q-35 0 -54 27.5t-19 65.5zM155 608q15 0 23.5 9.5t8.5 23.5t-8.5 23.5t-23.5 9.5t-23.5 -9.5t-8.5 -23.5t8.5 -23.5t23.5 -9.5zM155 562q-35 0 -57.5 22t-22.5 57t22.5 57t57.5 22t57.5 -22t22.5 -57t-22.5 -57t-57.5 -22z" />
    <glyph glyph-name="ae" unicode="&#xe6;" horiz-adv-x="485" 
d="M191 63q-40 -68 -101 -68h-4q-35 0 -54.5 27.5t-19.5 65.5v98q0 75 56 110q13 8 55 28.5t49 24.5q8 5 8 20v48q0 29 -22 29h-4q-22 0 -22 -29v-72h-114v93q0 44 28 75t98 31h23q53 0 80 -27q25 31 80 31h15q132 0 132 -147v-150h-171v-117q0 -32 24 -32q25 0 25 32v80
h122v-90q0 -62 -35 -98t-102 -36h-21q-98 0 -125 73zM180 134v112q-24 -13 -33 -25q-12 -15 -12 -41v-46q0 -32 21 -32q24 0 24 32zM303 417v-70h52v69q0 32 -26 32t-26 -31z" />
    <glyph glyph-name="ccedilla" unicode="&#xe7;" horiz-adv-x="318" 
d="M156 -188h-61v63h50q22 0 22 17v1q0 15 -22 15h-35v86q-97 21 -97 135v271q0 148 139 148h25q130 0 130 -130v-89h-118v76q0 38 -24 38q-23 0 -23 -37v-271q0 -33 22 -33q24 0 24 31v108h119v-116q0 -60 -33 -98t-99 -38h-5v-25h3q79 -3 79 -72v-3q0 -38 -26 -57.5
t-70 -19.5z" />
    <glyph glyph-name="egrave" unicode="&#xe8;" horiz-adv-x="319" 
d="M172 548q135 0 135 -137v-159h-171v-117q0 -33 25 -33q23 0 23 33v80h123v-98q0 -61 -38 -94t-97 -33h-24q-62 0 -98.5 33t-36.5 94v296q0 59 33 97t102 38h24zM170 700l41 -134h-102l-45 134h106zM136 413v-65h52v65q0 36 -26 36q-16 0 -21 -8.5t-5 -27.5z" />
    <glyph glyph-name="eacute" unicode="&#xe9;" horiz-adv-x="319" 
d="M172 548q135 0 135 -137v-159h-171v-117q0 -33 25 -33q23 0 23 33v80h123v-98q0 -61 -38 -94t-97 -33h-24q-62 0 -98.5 33t-36.5 94v296q0 59 33 97t102 38h24zM109 566l42 134h105l-44 -134h-103zM136 413v-65h52v65q0 36 -26 36q-16 0 -21 -8.5t-5 -27.5z" />
    <glyph glyph-name="ecircumflex" unicode="&#xea;" horiz-adv-x="319" 
d="M172 548q135 0 135 -137v-159h-171v-117q0 -33 25 -33q23 0 23 33v80h123v-98q0 -61 -38 -94t-97 -33h-24q-62 0 -98.5 33t-36.5 94v296q0 59 33 97t102 38h24zM214 700l62 -134h-91l-24 60l-25 -60h-89l61 134h106zM136 413v-65h52v65q0 36 -26 36q-16 0 -21 -8.5
t-5 -27.5z" />
    <glyph glyph-name="edieresis" unicode="&#xeb;" horiz-adv-x="319" 
d="M172 548q135 0 135 -137v-159h-171v-117q0 -33 25 -33q23 0 23 33v80h123v-98q0 -61 -38 -94t-97 -33h-24q-62 0 -98.5 33t-36.5 94v296q0 59 33 97t102 38h24zM273 672v-106h-100v106h100zM149 672v-106h-100v106h100zM136 413v-65h52v65q0 36 -26 36q-16 0 -21 -8.5
t-5 -27.5z" />
    <glyph glyph-name="igrave" unicode="&#xec;" horiz-adv-x="160" 
d="M144 0v538h-128v-538h128zM91 700l41 -136h-102l-45 136h106z" />
    <glyph glyph-name="iacute" unicode="&#xed;" horiz-adv-x="160" 
d="M144 0v538h-128v-538h128zM29 564l42 136h105l-44 -136h-103z" />
    <glyph glyph-name="icircumflex" unicode="&#xee;" horiz-adv-x="160" 
d="M133 700l52 -136h-86l-19 66l-20 -66h-85l52 136h106zM144 0v538h-128v-538h128z" />
    <glyph glyph-name="idieresis" unicode="&#xef;" horiz-adv-x="160" 
d="M69 670v-106h-93v106h93zM184 670v-106h-93v106h93zM144 538v-538h-128v538h128z" />
    <glyph glyph-name="eth" unicode="&#xf0;" horiz-adv-x="337" 
d="M55 549v86l58 26l-41 83h118l20 -39l73 33v-86l-38 -17l35 -68q26 -52 35 -86t9 -88v-249q0 -67 -38 -110.5t-102 -43.5h-32q-70 0 -104.5 42t-34.5 110v287q0 49 25 80t60 31h2q30 0 53.5 -15.5t49.5 -45.5l-56 112zM195 144v256q0 37 -27 37q-26 0 -26 -37v-256
q0 -38 26 -38q27 0 27 38z" />
    <glyph glyph-name="ntilde" unicode="&#xf1;" horiz-adv-x="340" 
d="M16 0v538h127v-65q45 67 97 67h7q40 0 58.5 -29t18.5 -61v-450h-129v396q0 32 -25 32q-26 0 -26 -36v-392h-128zM205 678h73v-56q0 -25 -15 -42t-39 -17q-22 0 -60 19q-19 9 -23 9q-7 0 -7 -12v-16h-72v47q0 31 14.5 49.5t40.5 18.5q20 0 59 -18q19 -8 23 -8q6 0 6 10v16
z" />
    <glyph glyph-name="ograve" unicode="&#xf2;" horiz-adv-x="337" 
d="M13 142q0 -68 35 -110t105 -42h30q65 0 103 43.5t38 110.5v255q0 71 -37.5 110t-103.5 39h-30q-66 0 -103 -39.5t-37 -111.5v-255zM142 400q0 37 26 37q27 0 27 -37v-256q0 -38 -27 -38q-26 0 -26 38v256zM178 700l41 -134h-102l-45 134h106z" />
    <glyph glyph-name="oacute" unicode="&#xf3;" horiz-adv-x="337" 
d="M13 142q0 -68 35 -110t105 -42h30q65 0 103 43.5t38 110.5v255q0 71 -37.5 110t-103.5 39h-30q-66 0 -103 -39.5t-37 -111.5v-255zM142 400q0 37 26 37q27 0 27 -37v-256q0 -38 -27 -38q-26 0 -26 38v256zM117 566l42 134h105l-44 -134h-103z" />
    <glyph glyph-name="ocircumflex" unicode="&#xf4;" horiz-adv-x="337" 
d="M13 142q0 -68 35 -110t105 -42h30q65 0 103 43.5t38 110.5v255q0 71 -37.5 110t-103.5 39h-30q-66 0 -103 -39.5t-37 -111.5v-255zM221 700l62 -134h-91l-24 60l-25 -60h-89l61 134h106zM142 400q0 37 26 37q27 0 27 -37v-256q0 -38 -27 -38q-26 0 -26 38v256z" />
    <glyph glyph-name="otilde" unicode="&#xf5;" horiz-adv-x="337" 
d="M13 142v255q0 72 37 111.5t103 39.5h30q66 0 103.5 -39t37.5 -110v-255q0 -67 -38 -110.5t-103 -43.5h-30q-70 0 -105 42t-35 110zM203 680h73v-56q0 -25 -15 -42t-39 -17q-22 0 -60 19q-19 9 -23 9q-7 0 -7 -12v-16h-72v47q0 31 14.5 49.5t40.5 18.5q20 0 59 -18
q19 -8 23 -8q6 0 6 10v16zM142 400v-256q0 -38 26 -38q27 0 27 38v256q0 37 -27 37q-26 0 -26 -37z" />
    <glyph glyph-name="odieresis" unicode="&#xf6;" horiz-adv-x="337" 
d="M13 142v255q0 72 37 111.5t103 39.5h30q66 0 103.5 -39t37.5 -110v-255q0 -67 -38 -110.5t-103 -43.5h-30q-70 0 -105 42t-35 110zM142 400v-256q0 -38 26 -38q27 0 27 38v256q0 37 -27 37q-26 0 -26 -37zM157 672v-106h-100v106h100zM281 672v-106h-100v106h100z" />
    <glyph glyph-name="divide" unicode="&#xf7;" horiz-adv-x="339" 
d="M13 346h313v-91h-313v91zM221 478v-103h-103v103h103zM221 223v-103h-103v103h103z" />
    <glyph glyph-name="oslash" unicode="&#xf8;" horiz-adv-x="332" 
d="M13 142v255q0 72 37 111.5t103 39.5h26q51 0 87 -29l10 19h66l-35 -69q12 -33 12 -70v-255q0 -68 -37.5 -111t-102.5 -43h-26q-49 0 -85 30l-10 -20h-67l36 70q-14 29 -14 72zM194 387v14q0 37 -28 37t-28 -37v-137zM166 105q28 0 28 38v129l-56 -121v-8q0 -38 28 -38z
" />
    <glyph glyph-name="ugrave" unicode="&#xf9;" 
d="M181 700l41 -136h-102l-45 136h106zM319 0v538h-127v-392q0 -36 -25 -36q-22 0 -22 33v395h-129v-447q0 -36 21 -64.5t57 -28.5h4q52 0 97 68v-66h124z" />
    <glyph glyph-name="uacute" unicode="&#xfa;" 
d="M319 0v538h-127v-392q0 -36 -25 -36q-22 0 -22 33v395h-129v-447q0 -36 21 -64.5t57 -28.5h4q52 0 97 68v-66h124zM117 564l42 136h105l-44 -136h-103z" />
    <glyph glyph-name="ucircumflex" unicode="&#xfb;" 
d="M319 0v538h-127v-392q0 -36 -25 -36q-22 0 -22 33v395h-129v-447q0 -36 21 -64.5t57 -28.5h4q52 0 97 68v-66h124zM220 700l62 -136h-91l-24 62l-25 -62h-89l61 136h106z" />
    <glyph glyph-name="udieresis" unicode="&#xfc;" 
d="M319 538v-538h-124v66q-45 -68 -97 -68h-4q-36 0 -57 28.5t-21 64.5v447h129v-395q0 -33 22 -33q25 0 25 36v392h127zM156 670v-106h-100v106h100zM280 670v-106h-100v106h100z" />
    <glyph glyph-name="yacute" unicode="&#xfd;" horiz-adv-x="311" 
d="M-4 538l93 -529q2 -16 1 -30l-2 -21q-2 -15 -6 -21t-16 -6h-53v-119h116q60 0 74 81l113 645h-123l-35 -297l-36 297h-126zM103 564l42 136h105l-44 -136h-103z" />
    <glyph glyph-name="thorn" unicode="&#xfe;" horiz-adv-x="340" 
d="M16 744h128v-266q38 66 97 66h2q40 0 61 -31.5t21 -83.5v-321q0 -53 -26.5 -86t-63.5 -33h-2q-51 0 -89 58v-235h-128v932zM144 402v-272q0 -36 25 -36t25 35v273q0 34 -25 34t-25 -34z" />
    <glyph glyph-name="ydieresis" unicode="&#xff;" horiz-adv-x="311" 
d="M89 9l-93 529h126l36 -297l35 297h123l-113 -645q-14 -81 -74 -81h-116v119h53q12 0 16 6t6 21l2 21q1 14 -1 30zM269 670v-106h-100v106h100zM145 670v-106h-100v106h100z" />
    <glyph glyph-name="Amacron" unicode="&#x100;" horiz-adv-x="345" 
d="M220 0l-14 125h-80l-12 -125h-118l94 744h158l101 -744h-129zM72 777v88h193v-88h-193zM165 508l-26 -255h54z" />
    <glyph glyph-name="amacron" unicode="&#x101;" 
d="M180 134v131q-24 -13 -33 -25q-12 -15 -12 -41v-65q0 -32 21 -32q24 0 24 32zM12 88v117q0 75 56 110q13 8 55 28.5t49 24.5q8 5 8 20v29q0 29 -22 29h-4q-22 0 -22 -29v-53h-114v74q0 44 28 75t98 31h23q75 0 105.5 -30.5t30.5 -87.5v-297q0 -9 3.5 -12t15.5 -3h14v-114
h-119q-37 0 -37 61q-36 -66 -91 -66h-4q-35 0 -54 27.5t-19 65.5zM61 576v87h191v-87h-191z" />
    <glyph glyph-name="Abreve" unicode="&#x102;" horiz-adv-x="345" 
d="M220 0l-14 125h-80l-12 -125h-118l94 744h158l101 -744h-129zM170 767h-4q-47 0 -77 28t-30 75v5h85v-3q0 -26 23 -26h2q23 0 23 26v3h84v-5q0 -47 -31 -75t-75 -28zM165 508l-26 -255h54z" />
    <glyph glyph-name="abreve" unicode="&#x103;" 
d="M12 88v117q0 75 56 110q13 8 55 28.5t49 24.5q8 5 8 20v29q0 29 -22 29h-4q-22 0 -22 -29v-53h-114v74q0 44 28 75t98 31h23q75 0 105.5 -30.5t30.5 -87.5v-297q0 -9 3.5 -12t15.5 -3h14v-114h-119q-37 0 -37 61q-36 -66 -91 -66h-4q-35 0 -54 27.5t-19 65.5zM152 563h-3
q-48 0 -78 28.5t-30 80.5v8h85v-6q0 -33 24 -33h1q24 0 24 33v6h83v-8q0 -51 -30.5 -80t-75.5 -29zM180 134v131q-24 -13 -33 -25q-12 -15 -12 -41v-65q0 -32 21 -32q24 0 24 32z" />
    <glyph glyph-name="Aogonek" unicode="&#x104;" horiz-adv-x="345" 
d="M220 0l-14 125h-80l-12 -125h-118l94 744h158l101 -744q-44 -55 -44 -84v-4q0 -20 26 -20h18v-80h-58q-34 0 -56 17t-22 47v15q0 45 74 109h-67zM165 508l-26 -255h54z" />
    <glyph glyph-name="aogonek" unicode="&#x105;" 
d="M200 -124v15q0 45 74 109h-57q-37 0 -37 61q-36 -66 -91 -66h-4q-35 0 -54 27.5t-19 65.5v117q0 75 56 110q13 8 55 28.5t49 24.5q8 5 8 20v29q0 29 -22 29h-4q-22 0 -22 -29v-53h-114v74q0 44 28 75t98 31h23q75 0 105.5 -30.5t30.5 -87.5v-297q0 -9 3.5 -12t15.5 -3h14
v-114q-44 -55 -44 -84v-4q0 -20 26 -20h18v-80h-58q-34 0 -56 17t-22 47zM180 134v131q-24 -13 -33 -25q-12 -15 -12 -41v-65q0 -32 21 -32q24 0 24 32z" />
    <glyph glyph-name="Cacute" unicode="&#x106;" horiz-adv-x="368" 
d="M138 771l43 114h106l-45 -114h-104zM222 164q0 -45 -33 -45q-34 0 -34 45v420q0 43 33 43q34 0 34 -43v-120h132v125q0 74 -33.5 119t-120.5 45h-27q-83 0 -120 -47t-37 -122v-420q0 -80 34.5 -128t122.5 -48h27q82 0 118 48.5t36 123.5v168h-132v-164z" />
    <glyph glyph-name="cacute" unicode="&#x107;" horiz-adv-x="318" 
d="M307 241h-119v-108q0 -31 -24 -31q-22 0 -22 33v271q0 37 23 37q24 0 24 -38v-76h118v89q0 130 -130 130h-25q-139 0 -139 -148v-271q0 -64 34.5 -102t106.5 -38h21q66 0 99 38t33 98v116zM112 566l42 134h105l-44 -134h-103z" />
    <glyph glyph-name="Ccircumflex" unicode="&#x108;" horiz-adv-x="368" 
d="M239 885l66 -114h-89l-28 46l-27 -46h-89l65 114h102zM222 164q0 -45 -33 -45q-34 0 -34 45v420q0 43 33 43q34 0 34 -43v-120h132v125q0 74 -33.5 119t-120.5 45h-27q-83 0 -120 -47t-37 -122v-420q0 -80 34.5 -128t122.5 -48h27q82 0 118 48.5t36 123.5v168h-132v-164z
" />
    <glyph glyph-name="ccircumflex" unicode="&#x109;" horiz-adv-x="318" 
d="M307 241h-119v-108q0 -31 -24 -31q-22 0 -22 33v271q0 37 23 37q24 0 24 -38v-76h118v89q0 130 -130 130h-25q-139 0 -139 -148v-271q0 -64 34.5 -102t106.5 -38h21q66 0 99 38t33 98v116zM217 700l62 -134h-91l-24 60l-25 -60h-89l61 134h106z" />
    <glyph glyph-name="Cdotaccent" unicode="&#x10a;" horiz-adv-x="368" 
d="M252 896v-125h-128v125h128zM222 164v164h132v-168q0 -75 -36 -123.5t-118 -48.5h-27q-88 0 -122.5 48t-34.5 128v420q0 75 37 122t120 47h27q87 0 120.5 -45t33.5 -119v-125h-132v120q0 43 -34 43q-33 0 -33 -43v-420q0 -45 34 -45q33 0 33 45z" />
    <glyph glyph-name="cdotaccent" unicode="&#x10b;" horiz-adv-x="318" 
d="M188 241h119v-116q0 -60 -33 -98t-99 -38h-21q-72 0 -106.5 38t-34.5 102v271q0 148 139 148h25q130 0 130 -130v-89h-118v76q0 38 -24 38q-23 0 -23 -37v-271q0 -33 22 -33q24 0 24 31v108zM228 690v-124h-128v124h128z" />
    <glyph glyph-name="Ccaron" unicode="&#x10c;" horiz-adv-x="368" 
d="M137 771l-66 114h90l27 -48l27 48h89l-66 -114h-101zM222 164q0 -45 -33 -45q-34 0 -34 45v420q0 43 33 43q34 0 34 -43v-120h132v125q0 74 -33.5 119t-120.5 45h-27q-83 0 -120 -47t-37 -122v-420q0 -80 34.5 -128t122.5 -48h27q82 0 118 48.5t36 123.5v168h-132v-164z
" />
    <glyph glyph-name="ccaron" unicode="&#x10d;" horiz-adv-x="318" 
d="M307 241h-119v-108q0 -31 -24 -31q-22 0 -22 33v271q0 37 23 37q24 0 24 -38v-76h118v89q0 130 -130 130h-25q-139 0 -139 -148v-271q0 -64 34.5 -102t106.5 -38h21q66 0 99 38t33 98v116zM112 566l-61 134h91l24 -62l25 62h89l-61 -134h-107z" />
    <glyph glyph-name="Dcaron" unicode="&#x10e;" horiz-adv-x="370" 
d="M19 744v-744h189q79 0 112 41t33 124v420q0 84 -35 121.5t-110 37.5h-189zM152 124v502h30q19 0 27 -11.5t8 -38.5v-400q0 -28 -8.5 -40t-30.5 -12h-26zM120 770l-66 115h90l27 -48l27 48h89l-66 -115h-101z" />
    <glyph glyph-name="dcaron" unicode="&#x10f;" horiz-adv-x="340" 
d="M196 744h128v-744h-128v60q-12 -26 -35.5 -48.5t-53.5 -22.5h-2q-40 0 -65 33.5t-25 81.5v333q0 42 21.5 74.5t58.5 32.5h5q55 0 96 -66v266zM196 143v249q0 42 -27 42q-25 0 -25 -37v-259q0 -37 25 -37q27 0 27 42zM341 594l6 150h87l-12 -150h-81z" />
    <glyph glyph-name="Dcroat" unicode="&#x110;" horiz-adv-x="373" 
d="M23 443v301h189q75 0 110 -37.5t35 -121.5v-420q0 -83 -33 -124t-112 -41h-189v325h-25v118h25zM156 325v-201h26q22 0 30.5 12t8.5 40v400q0 27 -8 38.5t-27 11.5h-30v-183h43v-118h-43z" />
    <glyph glyph-name="dcroat" unicode="&#x111;" horiz-adv-x="340" 
d="M121 583v91h75v70h128v-70h32v-91h-32v-583h-128v60q-12 -26 -35.5 -48.5t-53.5 -22.5h-2q-40 0 -65 33.5t-25 81.5v333q0 42 21.5 74.5t58.5 32.5h5q55 0 96 -66v105h-75zM196 143v249q0 42 -27 42q-25 0 -25 -37v-259q0 -37 25 -37q27 0 27 42z" />
    <glyph glyph-name="Emacron" unicode="&#x112;" horiz-adv-x="311" 
d="M19 744h278v-131h-145v-162h114v-134h-114v-183h152v-134h-285v744zM64 777v88h193v-88h-193z" />
    <glyph glyph-name="emacron" unicode="&#x113;" horiz-adv-x="319" 
d="M172 548q135 0 135 -137v-159h-171v-117q0 -33 25 -33q23 0 23 33v80h123v-98q0 -61 -38 -94t-97 -33h-24q-62 0 -98.5 33t-36.5 94v296q0 59 33 97t102 38h24zM65 578v87h191v-87h-191zM136 413v-65h52v65q0 36 -26 36q-16 0 -21 -8.5t-5 -27.5z" />
    <glyph glyph-name="Ebreve" unicode="&#x114;" horiz-adv-x="311" 
d="M19 744h278v-131h-145v-162h114v-134h-114v-183h152v-134h-285v744zM165 767h-4q-47 0 -77 28t-30 75v5h85v-3q0 -26 23 -26h2q23 0 23 26v3h84v-5q0 -47 -31 -75t-75 -28z" />
    <glyph glyph-name="ebreve" unicode="&#x115;" horiz-adv-x="319" 
d="M172 548q135 0 135 -137v-159h-171v-117q0 -33 25 -33q23 0 23 33v80h123v-98q0 -61 -38 -94t-97 -33h-24q-62 0 -98.5 33t-36.5 94v296q0 59 33 97t102 38h24zM163 565h-3q-48 0 -78 28.5t-30 80.5v8h85v-6q0 -33 24 -33h1q24 0 24 33v6h83v-8q0 -51 -30.5 -80
t-75.5 -29zM136 413v-65h52v65q0 36 -26 36q-16 0 -21 -8.5t-5 -27.5z" />
    <glyph glyph-name="Edotaccent" unicode="&#x116;" horiz-adv-x="311" 
d="M19 744h278v-131h-145v-162h114v-134h-114v-183h152v-134h-285v744zM227 896v-126h-128v126h128z" />
    <glyph glyph-name="edotaccent" unicode="&#x117;" horiz-adv-x="319" 
d="M172 548q135 0 135 -137v-159h-171v-117q0 -33 25 -33q23 0 23 33v80h123v-98q0 -61 -38 -94t-97 -33h-24q-62 0 -98.5 33t-36.5 94v296q0 59 33 97t102 38h24zM224 690v-124h-128v124h128zM136 413v-65h52v65q0 36 -26 36q-16 0 -21 -8.5t-5 -27.5z" />
    <glyph glyph-name="Eogonek" unicode="&#x118;" horiz-adv-x="311" 
d="M123 -124v15q0 45 74 109h-178v744h278v-131h-145v-162h114v-134h-114v-183h152v-134h-45q-44 -55 -44 -84v-4q0 -20 26 -20h18v-80h-58q-34 0 -56 17t-22 47z" />
    <glyph glyph-name="eogonek" unicode="&#x119;" horiz-adv-x="319" 
d="M254 -1q-43 -54 -43 -83v-4q0 -20 26 -20h18v-80h-58q-34 0 -56 17t-22 47v15q0 45 65 100q-4 -1 -12 -1h-24q-62 0 -98.5 33t-36.5 94v296q0 59 33 97t102 38h24q135 0 135 -137v-159h-171v-117q0 -33 25 -33q23 0 23 33v80h123v-94q0 -28 -8 -50.5t-15.5 -33.5
t-29.5 -38zM136 413v-65h52v65q0 36 -26 36q-16 0 -21 -8.5t-5 -27.5z" />
    <glyph glyph-name="Ecaron" unicode="&#x11a;" horiz-adv-x="311" 
d="M19 744h278v-131h-145v-162h114v-134h-114v-183h152v-134h-285v744zM112 770l-66 115h90l27 -48l27 48h89l-66 -115h-101z" />
    <glyph glyph-name="ecaron" unicode="&#x11b;" horiz-adv-x="319" 
d="M172 548q135 0 135 -137v-159h-171v-117q0 -33 25 -33q23 0 23 33v80h123v-98q0 -61 -38 -94t-97 -33h-24q-62 0 -98.5 33t-36.5 94v296q0 59 33 97t102 38h24zM108 566l-61 134h91l24 -62l25 62h89l-61 -134h-107zM136 413v-65h52v65q0 36 -26 36q-16 0 -21 -8.5
t-5 -27.5z" />
    <glyph glyph-name="Gcircumflex" unicode="&#x11c;" horiz-adv-x="374" 
d="M238 885l66 -114h-89l-28 46l-27 -46h-89l65 114h102zM137 -10h10q71 0 110 81q10 -29 20 -71h81v450h-177v-125h49v-160q0 -46 -39 -46q-36 0 -36 48v414q0 47 33 47q19 0 26.5 -11.5t7.5 -35.5v-83h130v82q0 37 -6 65t-21.5 54t-47.5 40t-79 14h-27q-82 0 -118.5 -48.5
t-36.5 -125.5v-443q0 -62 32.5 -104t88.5 -42z" />
    <glyph glyph-name="gcircumflex" unicode="&#x11d;" horiz-adv-x="338" 
d="M194 -65v125q-38 -70 -87 -70q-40 0 -66 29t-26 76v321q0 57 22 91t63 34h1q53 0 95 -68v65h126v-612q0 -51 -32 -86t-113 -35h-18q-139 0 -139 98v72h123v-44q0 -23 22 -23h5q24 0 24 27zM220 700l62 -136h-91l-24 62l-25 -62h-89l61 136h106zM194 129v270q0 34 -25 34
q-24 0 -24 -33v-272q0 -32 24 -32q25 0 25 33z" />
    <glyph glyph-name="Gbreve" unicode="&#x11e;" horiz-adv-x="374" 
d="M147 -10h-10q-56 0 -88.5 42t-32.5 104v443q0 77 36.5 125.5t118.5 48.5h27q47 0 79 -14t47.5 -40t21.5 -54t6 -65v-82h-130v83q0 24 -7.5 35.5t-26.5 11.5q-33 0 -33 -47v-414q0 -48 36 -48q39 0 39 46v160h-49v125h177v-450h-81q-10 42 -20 71q-39 -81 -110 -81z
M188 768h-4q-47 0 -77 28t-30 75v5h85v-3q0 -26 23 -26h2q23 0 23 26v3h84v-5q0 -47 -31 -75t-75 -28z" />
    <glyph glyph-name="gbreve" unicode="&#x11f;" horiz-adv-x="338" 
d="M194 -65v125q-38 -70 -87 -70q-40 0 -66 29t-26 76v321q0 57 22 91t63 34h1q53 0 95 -68v65h126v-612q0 -51 -32 -86t-113 -35h-18q-139 0 -139 98v72h123v-44q0 -23 22 -23h5q24 0 24 27zM170 563h-3q-48 0 -78 28.5t-30 80.5v8h85v-6q0 -33 24 -33h1q24 0 24 33v6h83
v-8q0 -51 -30.5 -80t-75.5 -29zM194 129v270q0 34 -25 34q-24 0 -24 -33v-272q0 -32 24 -32q25 0 25 33z" />
    <glyph glyph-name="Gdotaccent" unicode="&#x120;" horiz-adv-x="374" 
d="M254 896v-125h-128v125h128zM147 -10h-10q-56 0 -88.5 42t-32.5 104v443q0 77 36.5 125.5t118.5 48.5h27q47 0 79 -14t47.5 -40t21.5 -54t6 -65v-82h-130v83q0 24 -7.5 35.5t-26.5 11.5q-33 0 -33 -47v-414q0 -48 36 -48q39 0 39 46v160h-49v125h177v-450h-81
q-10 42 -20 71q-39 -81 -110 -81z" />
    <glyph glyph-name="gdotaccent" unicode="&#x121;" horiz-adv-x="338" 
d="M194 -65v125q-38 -70 -87 -70q-40 0 -66 29t-26 76v321q0 57 22 91t63 34h1q53 0 95 -68v65h126v-612q0 -51 -32 -86t-113 -35h-18q-139 0 -139 98v72h123v-44q0 -23 22 -23h5q24 0 24 27zM232 690v-126h-128v126h128zM194 129v270q0 34 -25 34q-24 0 -24 -33v-272
q0 -32 24 -32q25 0 25 33z" />
    <glyph glyph-name="uni0122" unicode="&#x122;" horiz-adv-x="374" 
d="M147 -10h-10q-56 0 -88.5 42t-32.5 104v443q0 77 36.5 125.5t118.5 48.5h27q47 0 79 -14t47.5 -40t21.5 -54t6 -65v-82h-130v83q0 24 -7.5 35.5t-26.5 11.5q-33 0 -33 -47v-414q0 -48 36 -48q39 0 39 46v160h-49v125h177v-450h-81q-10 42 -20 71q-39 -81 -110 -81z
M219 -203h-51q11 31 14 67h-43v110h102v-70q0 -52 -22 -107z" />
    <glyph glyph-name="uni0123" unicode="&#x123;" horiz-adv-x="338" 
d="M194 -65v125q-38 -70 -87 -70q-40 0 -66 29t-26 76v321q0 57 22 91t63 34h1q53 0 95 -68v65h126v-612q0 -51 -32 -86t-113 -35h-18q-139 0 -139 98v72h123v-44q0 -23 22 -23h5q24 0 24 27zM194 129v270q0 34 -25 34q-24 0 -24 -33v-272q0 -32 24 -32q25 0 25 33zM137 742
h53q-12 -41 -14 -69h42v-109h-103v69q0 62 22 109z" />
    <glyph glyph-name="Hcircumflex" unicode="&#x124;" horiz-adv-x="374" 
d="M152 0v314h70v-314h133v744h-133v-284h-70v284h-133v-744h133zM238 885l66 -115h-89l-28 47l-27 -47h-89l65 115h102z" />
    <glyph glyph-name="hcircumflex" unicode="&#x125;" horiz-adv-x="340" 
d="M16 744v-744h128v394q0 34 26 34q25 0 25 -30v-398h129v456q0 37 -21.5 60.5t-57.5 23.5h-5q-53 0 -96 -64v268h-128zM209 885l66 -115h-89l-28 47l-27 -47h-89l65 115h102z" />
    <glyph glyph-name="Hbar" unicode="&#x126;" horiz-adv-x="374" 
d="M355 550v-550h-133v314h-70v-314h-133v550h-25v101h25v93h133v-93h70v93h133v-93h26v-101h-26zM152 550v-90h70v90h-70z" />
    <glyph glyph-name="hbar" unicode="&#x127;" horiz-adv-x="340" 
d="M-16 583v91h32v70h128v-70h75v-91h-75v-107q43 64 96 64h5q36 0 57.5 -23.5t21.5 -60.5v-456h-129v398q0 30 -25 30q-26 0 -26 -34v-394h-128v583h-32z" />
    <glyph glyph-name="Itilde" unicode="&#x128;" horiz-adv-x="171" 
d="M152 744v-744h-133v744h133zM83 787q-22 9 -25 9q-8 0 -8 -11v-16h-72v34q0 37 15 57t42 20q25 0 54 -13q21 -10 27 -10t6 10v16h72v-34q0 -38 -17 -57t-40 -19q-22 0 -54 14z" />
    <glyph glyph-name="itilde" unicode="&#x129;" horiz-adv-x="160" 
d="M145 538v-538h-128v538h128zM110 678h68v-66q0 -22 -12.5 -35t-30.5 -13q-21 0 -59 20q-16 8 -19 8q-5 0 -5 -11v-18h-68v57q0 56 44 56q23 0 59 -18q14 -7 18 -7q5 0 5 10v17z" />
    <glyph glyph-name="Imacron" unicode="&#x12a;" horiz-adv-x="171" 
d="M152 0v744h-133v-744h133zM-11 777v88h193v-88h-193z" />
    <glyph glyph-name="imacron" unicode="&#x12b;" horiz-adv-x="160" 
d="M-6 576v88h172v-88h-172zM144 0v538h-128v-538h128z" />
    <glyph glyph-name="Ibreve" unicode="&#x12c;" horiz-adv-x="171" 
d="M152 744v-744h-133v744h133zM88 767h-4q-47 0 -77 28t-30 75v5h85v-3q0 -26 23 -26h2q23 0 23 26v3h84v-5q0 -47 -31 -75t-75 -28z" />
    <glyph glyph-name="ibreve" unicode="&#x12d;" horiz-adv-x="160" 
d="M144 538v-538h-128v538h128zM83 563h-4q-95 0 -95 94v23h80v-16q0 -23 17 -23t17 23v16h78v-23q0 -43 -22.5 -68.5t-70.5 -25.5z" />
    <glyph glyph-name="Iogonek" unicode="&#x12e;" horiz-adv-x="171" 
d="M152 744v-744h-133v744h133zM16 -124v15q0 45 74 109h62q-44 -55 -44 -84v-4q0 -20 26 -20h18v-80h-58q-34 0 -56 17t-22 47z" />
    <glyph glyph-name="iogonek" unicode="&#x12f;" horiz-adv-x="160" 
d="M144 538v-538h-128v538h128zM144 690v-126h-128v126h128zM8 -124v15q0 45 74 109h62q-44 -55 -44 -84v-4q0 -20 26 -20h18v-80h-58q-34 0 -56 17t-22 47z" />
    <glyph glyph-name="Idotaccent" unicode="&#x130;" horiz-adv-x="171" 
d="M152 744v-744h-133v744h133zM150 896v-126h-128v126h128z" />
    <glyph glyph-name="dotlessi" unicode="&#x131;" horiz-adv-x="160" 
d="M144 538v-538h-128v538h128z" />
    <glyph glyph-name="IJ" unicode="&#x132;" horiz-adv-x="521" 
d="M152 744v-744h-133v744h133zM182 327h128v-172q0 -33 26 -33h4q25 0 25 33v589h138v-593q0 -77 -37 -118t-104 -41h-44q-68 0 -102 34.5t-34 110.5v190z" />
    <glyph glyph-name="ij" unicode="&#x133;" horiz-adv-x="321" 
d="M144 538v-538h-128v538h128zM144 690v-126h-128v126h128zM305 690v-126h-128v126h128zM107 -69h52q10 0 14 4.5t4 16.5v586h128v-654q0 -30 -20.5 -51t-53.5 -21h-124v119z" />
    <glyph glyph-name="Jcircumflex" unicode="&#x134;" horiz-adv-x="350" 
d="M139 327h-128v-190q0 -76 34 -110.5t102 -34.5h44q67 0 104 41t37 118v593h-138v-589q0 -33 -25 -33h-4q-26 0 -26 33v172zM310 885l66 -115h-89l-28 47l-27 -47h-89l65 115h102z" />
    <glyph glyph-name="jcircumflex" unicode="&#x135;" horiz-adv-x="161" 
d="M132 700l52 -136h-86l-19 66l-20 -66h-85l52 136h106zM-1 -69h-52v-119h124q33 0 53.5 21t20.5 51v654h-128v-586q0 -12 -4 -16.5t-14 -4.5z" />
    <glyph glyph-name="uni0136" unicode="&#x136;" horiz-adv-x="372" 
d="M152 315v-315h-133v744h133v-286l87 286h131l-105 -338l116 -406h-140zM227 -203h-51q11 31 14 67h-43v110h102v-70q0 -52 -22 -107z" />
    <glyph glyph-name="uni0137" unicode="&#x137;" horiz-adv-x="342" 
d="M144 351l75 187h122l-95 -226l102 -312h-127l-77 239v-239h-128v744h128v-393zM211 -203h-51q11 31 14 67h-43v110h102v-70q0 -52 -22 -107z" />
    <glyph glyph-name="Lacute" unicode="&#x139;" horiz-adv-x="300" 
d="M19 744h133v-610h141v-134h-274v744zM34 770l43 115h106l-45 -115h-104z" />
    <glyph glyph-name="lacute" unicode="&#x13a;" horiz-adv-x="160" 
d="M144 0v744h-128v-744h128zM28 770l43 115h106l-45 -115h-104z" />
    <glyph glyph-name="uni013B" unicode="&#x13b;" horiz-adv-x="300" 
d="M19 744h133v-610h141v-134h-274v744zM137 -203h51q22 55 22 107v70h-102v-110h43q-3 -36 -14 -67z" />
    <glyph glyph-name="uni013C" unicode="&#x13c;" horiz-adv-x="160" 
d="M144 744v-744h-128v744h128zM112 -203h-51q11 31 14 67h-43v110h102v-70q0 -52 -22 -107z" />
    <glyph glyph-name="Lcaron" unicode="&#x13d;" horiz-adv-x="300" 
d="M169 594l6 150h87l-12 -150h-81zM19 744h133v-610h141v-134h-274v744z" />
    <glyph glyph-name="lcaron" unicode="&#x13e;" horiz-adv-x="160" 
d="M144 744v-744h-128v744h128zM161 594l6 150h87l-12 -150h-81z" />
    <glyph glyph-name="Ldot" unicode="&#x13f;" horiz-adv-x="307" 
d="M297 314v144h-118v-144h118zM19 744h133v-610h141v-134h-274v744z" />
    <glyph glyph-name="ldot" unicode="&#x140;" horiz-adv-x="287" 
d="M283 458v-144h-118v144h118zM144 744v-744h-128v744h128z" />
    <glyph glyph-name="Lslash" unicode="&#x141;" horiz-adv-x="316" 
d="M34 744h133v-304l95 67v-110l-95 -65v-198h141v-134h-274v241l-33 -22v106l33 23v396z" />
    <glyph glyph-name="lslash" unicode="&#x142;" horiz-adv-x="185" 
d="M156 420v-420h-128v331l-27 -19v100l27 19v313h128v-222l28 20v-102z" />
    <glyph glyph-name="Nacute" unicode="&#x143;" horiz-adv-x="372" 
d="M19 744h125l91 -380v380h118v-744h-113l-103 408v-408h-118v744zM135 770l43 115h106l-45 -115h-104z" />
    <glyph glyph-name="nacute" unicode="&#x144;" horiz-adv-x="340" 
d="M16 538v-538h128v392q0 36 26 36q25 0 25 -32v-396h129v450q0 32 -18.5 61t-58.5 29h-7q-52 0 -97 -67v65h-127zM118 564l42 136h105l-44 -136h-103z" />
    <glyph glyph-name="uni0145" unicode="&#x145;" horiz-adv-x="372" 
d="M19 744h125l91 -380v380h118v-744h-113l-103 408v-408h-118v744zM165 -203h51q22 55 22 107v70h-102v-110h43q-3 -36 -14 -67z" />
    <glyph glyph-name="uni0146" unicode="&#x146;" horiz-adv-x="340" 
d="M16 0v538h127v-65q45 67 97 67h7q40 0 58.5 -29t18.5 -61v-450h-129v396q0 32 -25 32q-26 0 -26 -36v-392h-128zM201 -203h-51q11 31 14 67h-43v110h102v-70q0 -52 -22 -107z" />
    <glyph glyph-name="Ncaron" unicode="&#x147;" horiz-adv-x="372" 
d="M19 744h125l91 -380v380h118v-744h-113l-103 408v-408h-118v744zM137 770l-66 115h90l27 -48l27 48h89l-66 -115h-101z" />
    <glyph glyph-name="ncaron" unicode="&#x148;" horiz-adv-x="340" 
d="M16 538v-538h128v392q0 36 26 36q25 0 25 -32v-396h129v450q0 32 -18.5 61t-58.5 29h-7q-52 0 -97 -67v65h-127zM117 564l-62 136h91l24 -62l25 62h89l-62 -136h-105z" />
    <glyph glyph-name="napostrophe" unicode="&#x149;" horiz-adv-x="432" 
d="M108 0v538h127v-65q45 67 97 67h7q40 0 58.5 -29t18.5 -61v-450h-129v396q0 32 -25 32q-26 0 -26 -36v-392h-128zM87 524h-63q18 55 19 92h-43v128h111v-103q0 -61 -24 -117z" />
    <glyph glyph-name="Eng" unicode="&#x14a;" horiz-adv-x="372" 
d="M274 -188h-96v117h39q23 0 23 27v44l-103 412v-412h-118v744h125l93 -404v404h116v-845q0 -43 -21 -65t-58 -22z" />
    <glyph glyph-name="eng" unicode="&#x14b;" horiz-adv-x="340" 
d="M195 -48v444q0 32 -25 32q-26 0 -26 -36v-392h-128v538h124v-68q47 70 97 70h12q39 0 57 -29t18 -61v-566q0 -30 -20.5 -51t-53.5 -21h-95v119h22q10 0 14 4.5t4 16.5z" />
    <glyph glyph-name="Omacron" unicode="&#x14c;" horiz-adv-x="381" 
d="M365 170v394q0 189 -159 189h-30q-160 0 -160 -190v-393q0 -87 41.5 -134t119.5 -47h30q74 0 116 49t42 132zM226 574v-408q0 -44 -34 -44q-37 0 -37 44v408q0 49 36 49q35 0 35 -49zM94 778v88h193v-88h-193z" />
    <glyph glyph-name="omacron" unicode="&#x14d;" horiz-adv-x="337" 
d="M13 142q0 -68 35 -110t105 -42h30q65 0 103 43.5t38 110.5v255q0 71 -37.5 110t-103.5 39h-30q-66 0 -103 -39.5t-37 -111.5v-255zM142 400q0 37 26 37q27 0 27 -37v-256q0 -38 -27 -38q-26 0 -26 38v256zM73 578v87h191v-87h-191z" />
    <glyph glyph-name="Obreve" unicode="&#x14e;" horiz-adv-x="381" 
d="M365 564v-394q0 -83 -42 -132t-116 -49h-30q-78 0 -119.5 47t-41.5 134v393q0 190 160 190h30q159 0 159 -189zM226 166v408q0 49 -35 49q-36 0 -36 -49v-408q0 -44 37 -44q34 0 34 44zM193 768h-4q-47 0 -77 28t-30 75v5h85v-3q0 -26 23 -26h2q23 0 23 26v3h84v-5
q0 -47 -31 -75t-75 -28z" />
    <glyph glyph-name="obreve" unicode="&#x14f;" horiz-adv-x="337" 
d="M13 142v255q0 72 37 111.5t103 39.5h30q66 0 103.5 -39t37.5 -110v-255q0 -67 -38 -110.5t-103 -43.5h-30q-70 0 -105 42t-35 110zM171 565h-3q-48 0 -78 28.5t-30 80.5v8h85v-6q0 -33 24 -33h1q24 0 24 33v6h83v-8q0 -51 -30.5 -80t-75.5 -29zM142 400v-256
q0 -38 26 -38q27 0 27 38v256q0 37 -27 37q-26 0 -26 -37z" />
    <glyph glyph-name="Ohungarumlaut" unicode="&#x150;" horiz-adv-x="381" 
d="M93 771l24 114h90l-27 -114h-87zM204 771l26 114h89l-29 -114h-86zM365 170v394q0 189 -159 189h-30q-160 0 -160 -190v-393q0 -87 41.5 -134t119.5 -47h30q74 0 116 49t42 132zM226 574v-408q0 -44 -34 -44q-37 0 -37 44v408q0 49 36 49q35 0 35 -49z" />
    <glyph glyph-name="ohungarumlaut" unicode="&#x151;" horiz-adv-x="337" 
d="M13 142q0 -68 35 -110t105 -42h30q65 0 103 43.5t38 110.5v255q0 71 -37.5 110t-103.5 39h-30q-66 0 -103 -39.5t-37 -111.5v-255zM142 400q0 37 26 37q27 0 27 -37v-256q0 -38 -27 -38q-26 0 -26 38v256zM78 566l24 134h88l-26 -134h-86zM187 566l25 134h88l-28 -134
h-85z" />
    <glyph glyph-name="OE" unicode="&#x152;" horiz-adv-x="514" 
d="M16 571q0 82 30.5 131t91.5 49q58 0 93 -50v43h266v-132h-138v-161h107v-135h-107v-182h148v-134h-276v45q-30 -55 -97 -55q-56 0 -87 45.5t-31 136.5v399zM226 569q0 54 -35 54q-36 0 -36 -54v-393q0 -54 36 -54q35 0 35 54v393z" />
    <glyph glyph-name="oe" unicode="&#x153;" horiz-adv-x="501" 
d="M489 252h-171v-118q0 -32 25 -32q24 0 24 32v81h122v-99q0 -61 -38 -94.5t-97 -33.5h-27q-23 0 -45 10.5t-32 22.5q-31 -31 -75 -31h-24q-69 0 -103.5 41.5t-34.5 110.5v255q0 72 36 111.5t101 39.5h26q54 0 79 -31q25 31 76 31h27q63 0 97 -35t34 -103v-158zM142 400
v-256q0 -38 26 -38q27 0 27 38v256q0 37 -27 37q-26 0 -26 -37zM318 412v-64h52v64q0 36 -26 36t-26 -36z" />
    <glyph glyph-name="Racute" unicode="&#x154;" horiz-adv-x="365" 
d="M152 629v-188h26q20 0 28.5 9.5t8.5 35.5v101q0 25 -6.5 33.5t-26.5 8.5h-30zM152 318v-318h-133v744h210q60 0 91 -32t31 -92v-119q0 -41 -18 -66t-41 -34q57 -21 57 -88v-253q0 -35 11 -55v-5h-133q-12 16 -12 57v217q0 25 -7.5 34.5t-27.5 9.5h-28zM124 770l43 115
h106l-45 -115h-104z" />
    <glyph glyph-name="racute" unicode="&#x155;" horiz-adv-x="304" 
d="M143 538v-67q29 70 85 70h6q61 0 61 -66v-195h-119v123q0 26 -16 26t-16 -26v-403h-128v538h127zM110 564l42 136h105l-44 -136h-103z" />
    <glyph glyph-name="uni0156" unicode="&#x156;" horiz-adv-x="365" 
d="M152 629v-188h26q20 0 28.5 9.5t8.5 35.5v101q0 25 -6.5 33.5t-26.5 8.5h-30zM152 318v-318h-133v744h210q60 0 91 -32t31 -92v-119q0 -41 -18 -66t-41 -34q57 -21 57 -88v-253q0 -35 11 -55v-5h-133q-12 16 -12 57v217q0 25 -7.5 34.5t-27.5 9.5h-28zM165 -203h51
q22 55 22 107v70h-102v-110h43q-3 -36 -14 -67z" />
    <glyph glyph-name="uni0157" unicode="&#x157;" horiz-adv-x="304" 
d="M143 538v-67q29 70 85 70h6q61 0 61 -66v-195h-119v123q0 26 -16 26t-16 -26v-403h-128v538h127zM57 -203h51q22 55 22 107v70h-102v-110h43q-3 -36 -14 -67z" />
    <glyph glyph-name="Rcaron" unicode="&#x158;" horiz-adv-x="365" 
d="M152 629v-188h26q20 0 28.5 9.5t8.5 35.5v101q0 25 -6.5 33.5t-26.5 8.5h-30zM152 318v-318h-133v744h210q60 0 91 -32t31 -92v-119q0 -41 -18 -66t-41 -34q57 -21 57 -88v-253q0 -35 11 -55v-5h-133q-12 16 -12 57v217q0 25 -7.5 34.5t-27.5 9.5h-28zM125 770l-66 115
h90l27 -48l27 48h89l-66 -115h-101z" />
    <glyph glyph-name="rcaron" unicode="&#x159;" horiz-adv-x="304" 
d="M143 538v-67q29 70 85 70h6q61 0 61 -66v-195h-119v123q0 26 -16 26t-16 -26v-403h-128v538h127zM110 564l-62 136h91l24 -62l25 62h89l-62 -136h-105z" />
    <glyph glyph-name="Sacute" unicode="&#x15a;" horiz-adv-x="355" 
d="M193 753h-27q-70 0 -110.5 -38.5t-40.5 -109.5v-32q0 -112 71 -189l77 -85q28 -31 35.5 -53t7.5 -63v-14q0 -54 -33 -54q-34 0 -34 45v119h-131v-134q0 -154 152 -154h26q80 0 121 49t41 135v35q0 52 -17 95t-64 96l-76 85q-41 46 -41 96v17q0 40 29 40t29 -39v-93h128
v100q0 75 -33.5 110.5t-109.5 35.5zM128 771l43 114h106l-45 -114h-104z" />
    <glyph glyph-name="sacute" unicode="&#x15b;" horiz-adv-x="298" 
d="M287 446q0 102 -122 102h-27q-62 0 -94 -32t-32 -88v-17q0 -44 13 -76.5t47 -65.5l68 -65q28 -27 28 -67v-12q0 -31 -21 -31h-1q-23 0 -23 30v72h-118v-88q0 -52 32 -84.5t98 -32.5h26q66 0 99.5 39t33.5 99v18q0 44 -14.5 76.5t-54.5 72.5l-71 70q-23 23 -23 52v11
q0 28 21 28t21 -28v-56h114v73zM101 566l42 134h105l-44 -134h-103z" />
    <glyph glyph-name="Scircumflex" unicode="&#x15c;" horiz-adv-x="355" 
d="M193 753h-27q-70 0 -110.5 -38.5t-40.5 -109.5v-32q0 -112 71 -189l77 -85q28 -31 35.5 -53t7.5 -63v-14q0 -54 -33 -54q-34 0 -34 45v119h-131v-134q0 -154 152 -154h26q80 0 121 49t41 135v35q0 52 -17 95t-64 96l-76 85q-41 46 -41 96v17q0 40 29 40t29 -39v-93h128
v100q0 75 -33.5 110.5t-109.5 35.5zM232 885l66 -114h-89l-28 46l-27 -46h-89l65 114h102z" />
    <glyph glyph-name="scircumflex" unicode="&#x15d;" horiz-adv-x="298" 
d="M287 446q0 102 -122 102h-27q-62 0 -94 -32t-32 -88v-17q0 -44 13 -76.5t47 -65.5l68 -65q28 -27 28 -67v-12q0 -31 -21 -31h-1q-23 0 -23 30v72h-118v-88q0 -52 32 -84.5t98 -32.5h26q66 0 99.5 39t33.5 99v18q0 44 -14.5 76.5t-54.5 72.5l-71 70q-23 23 -23 52v11
q0 28 21 28t21 -28v-56h114v73zM206 700l62 -134h-91l-24 60l-25 -60h-89l61 134h106z" />
    <glyph glyph-name="uni015E" unicode="&#x15e;" horiz-adv-x="355" 
d="M163 -188h-61v63h50q22 0 22 17v1q0 15 -22 15h-35v87q-109 19 -109 150v134h131v-119q0 -45 34 -45q33 0 33 54v14q0 41 -7.5 63t-35.5 53l-77 85q-71 77 -71 189v32q0 71 40.5 109.5t110.5 38.5h27q76 0 109.5 -35.5t33.5 -110.5v-100h-128v93q0 39 -29 39t-29 -40v-17
q0 -50 41 -96l76 -85q47 -53 64 -96t17 -95v-35q0 -86 -41 -135t-121 -49h-9v-27h3q79 -3 79 -72v-3q0 -38 -26 -57.5t-70 -19.5z" />
    <glyph glyph-name="uni015F" unicode="&#x15f;" horiz-adv-x="298" 
d="M136 -188h-61v63h50q22 0 22 17v1q0 15 -22 15h-35v88q-85 20 -85 112v88h118v-72q0 -30 23 -30h1q21 0 21 31v12q0 40 -28 67l-68 65q-34 33 -47 65.5t-13 76.5v17q0 56 32 88t94 32h27q122 0 122 -102v-73h-114v56q0 28 -21 28t-21 -28v-11q0 -29 23 -52l71 -70
q40 -40 54.5 -72.5t14.5 -76.5v-18q0 -60 -33.5 -99t-99.5 -39h-11v-27h3q79 -3 79 -72v-3q0 -38 -26 -57.5t-70 -19.5z" />
    <glyph glyph-name="Scaron" unicode="&#x160;" horiz-adv-x="355" 
d="M193 753h-27q-70 0 -110.5 -38.5t-40.5 -109.5v-32q0 -112 71 -189l77 -85q28 -31 35.5 -53t7.5 -63v-14q0 -54 -33 -54q-34 0 -34 45v119h-131v-134q0 -154 152 -154h26q80 0 121 49t41 135v35q0 52 -17 95t-64 96l-76 85q-41 46 -41 96v17q0 40 29 40t29 -39v-93h128
v100q0 75 -33.5 110.5t-109.5 35.5zM129 771l-66 114h90l27 -49l27 49h89l-66 -114h-101z" />
    <glyph glyph-name="scaron" unicode="&#x161;" horiz-adv-x="298" 
d="M287 446q0 102 -122 102h-27q-62 0 -94 -32t-32 -88v-17q0 -44 13 -76.5t47 -65.5l68 -65q28 -27 28 -67v-12q0 -31 -21 -31h-1q-23 0 -23 30v72h-118v-88q0 -52 32 -84.5t98 -32.5h26q66 0 99.5 39t33.5 99v18q0 44 -14.5 76.5t-54.5 72.5l-71 70q-23 23 -23 52v11
q0 28 21 28t21 -28v-56h114v73zM99 566l-61 134h91l24 -62l25 62h89l-61 -134h-107z" />
    <glyph glyph-name="Tcommaaccent" unicode="&#x162;" 
d="M6 744h323v-131h-95v-613h-133v613h-95v131zM197 -203h-51q11 31 14 67h-43v110h102v-70q0 -52 -22 -107z" />
    <glyph glyph-name="tcommaaccent" unicode="&#x163;" horiz-adv-x="263" 
d="M254 0h-128q-26 0 -43.5 19t-17.5 47v353h-61v119h61v178h127v-178h62v-119h-62v-276q0 -12 3.5 -17t15.5 -5h43v-121zM147 -203h51q22 55 22 107v70h-102v-110h43q-3 -36 -14 -67z" />
    <glyph glyph-name="Tcaron" unicode="&#x164;" 
d="M329 744h-323v-131h95v-613h133v613h95v131zM117 770l-66 115h90l27 -48l27 48h89l-66 -115h-101z" />
    <glyph glyph-name="tcaron" unicode="&#x165;" horiz-adv-x="263" 
d="M254 0h-128q-26 0 -43.5 19t-17.5 47v353h-61v119h61v178h127v-178h62v-119h-62v-276q0 -12 3.5 -17t15.5 -5h43v-121zM209 594l6 150h87l-12 -150h-81z" />
    <glyph glyph-name="Tbar" unicode="&#x166;" 
d="M6 744h323v-131h-95v-150h68v-114h-68v-349h-133v349h-68v114h68v150h-95v131z" />
    <glyph glyph-name="tbar" unicode="&#x167;" horiz-adv-x="263" 
d="M254 0h-128q-26 0 -43.5 19t-17.5 47v169h-61v104h61v80h-61v119h61v178h127v-178h62v-119h-62v-80h62v-104h-62v-92q0 -12 3.5 -17t15.5 -5h43v-121z" />
    <glyph glyph-name="Utilde" unicode="&#x168;" horiz-adv-x="375" 
d="M18 173v571h137v-576q0 -46 33 -46q32 0 32 46v576h137v-571q0 -90 -41 -137t-113 -47h-33q-73 0 -112.5 46.5t-39.5 137.5zM188 787q-22 9 -25 9q-8 0 -8 -11v-16h-72v34q0 37 15 57t42 20q25 0 54 -13q21 -10 27 -10t6 10v16h72v-34q0 -38 -17 -57t-40 -19
q-22 0 -54 14z" />
    <glyph glyph-name="utilde" unicode="&#x169;" 
d="M319 538v-538h-124v66q-45 -68 -97 -68h-4q-36 0 -57 28.5t-21 64.5v447h129v-395q0 -33 22 -33q25 0 25 36v392h127zM206 678h73v-56q0 -25 -15 -42t-39 -17q-22 0 -60 19q-19 9 -23 9q-7 0 -7 -12v-16h-72v47q0 31 14.5 49.5t40.5 18.5q20 0 59 -18q19 -8 23 -8
q6 0 6 10v16z" />
    <glyph glyph-name="Umacron" unicode="&#x16a;" horiz-adv-x="375" 
d="M18 173v571h137v-576q0 -46 33 -46q32 0 32 46v576h137v-571q0 -90 -41 -137t-113 -47h-33q-73 0 -112.5 46.5t-39.5 137.5zM91 777v88h193v-88h-193z" />
    <glyph glyph-name="umacron" unicode="&#x16b;" 
d="M319 0v538h-127v-392q0 -36 -25 -36q-22 0 -22 33v395h-129v-447q0 -36 21 -64.5t57 -28.5h4q52 0 97 68v-66h124zM73 576v87h191v-87h-191z" />
    <glyph glyph-name="Ubreve" unicode="&#x16c;" horiz-adv-x="375" 
d="M18 173v571h137v-576q0 -46 33 -46q32 0 32 46v576h137v-571q0 -90 -41 -137t-113 -47h-33q-73 0 -112.5 46.5t-39.5 137.5zM190 767h-4q-47 0 -77 28t-30 75v5h85v-3q0 -26 23 -26h2q23 0 23 26v3h84v-5q0 -47 -31 -75t-75 -28z" />
    <glyph glyph-name="ubreve" unicode="&#x16d;" 
d="M319 538v-538h-124v66q-45 -68 -97 -68h-4q-36 0 -57 28.5t-21 64.5v447h129v-395q0 -33 22 -33q25 0 25 36v392h127zM170 563h-3q-48 0 -78 28.5t-30 80.5v8h85v-6q0 -33 24 -33h1q24 0 24 33v6h83v-8q0 -51 -30.5 -80t-75.5 -29z" />
    <glyph glyph-name="Uring" unicode="&#x16e;" horiz-adv-x="375" 
d="M18 173v571h137v-576q0 -46 33 -46q32 0 32 46v576h137v-571q0 -90 -41 -137t-113 -47h-33q-73 0 -112.5 46.5t-39.5 137.5zM187 765q-35 0 -57.5 22t-22.5 57t22.5 57t57.5 22t57.5 -22t22.5 -57t-22.5 -57t-57.5 -22zM187 811q15 0 23.5 9.5t8.5 23.5t-8.5 23.5
t-23.5 9.5t-23.5 -9.5t-8.5 -23.5t8.5 -23.5t23.5 -9.5z" />
    <glyph glyph-name="uring" unicode="&#x16f;" 
d="M319 538v-538h-124v66q-45 -68 -97 -68h-4q-36 0 -57 28.5t-21 64.5v447h129v-395q0 -33 22 -33q25 0 25 36v392h127zM167 608q15 0 23.5 9.5t8.5 23.5t-8.5 23.5t-23.5 9.5t-23.5 -9.5t-8.5 -23.5t8.5 -23.5t23.5 -9.5zM167 562q-35 0 -57.5 22t-22.5 57t22.5 57
t57.5 22t57.5 -22t22.5 -57t-22.5 -57t-57.5 -22z" />
    <glyph glyph-name="Uhungarumlaut" unicode="&#x170;" horiz-adv-x="375" 
d="M18 173v571h137v-576q0 -46 33 -46q32 0 32 46v576h137v-571q0 -90 -41 -137t-113 -47h-33q-73 0 -112.5 46.5t-39.5 137.5zM89 770l24 115h90l-27 -115h-87zM200 770l26 115h89l-29 -115h-86z" />
    <glyph glyph-name="uhungarumlaut" unicode="&#x171;" 
d="M319 0v538h-127v-392q0 -36 -25 -36q-22 0 -22 33v395h-129v-447q0 -36 21 -64.5t57 -28.5h4q52 0 97 68v-66h124zM73 564l24 136h88l-26 -136h-86zM182 564l25 136h88l-28 -136h-85z" />
    <glyph glyph-name="Uogonek" unicode="&#x172;" horiz-adv-x="375" 
d="M151 -109q0 47 64 98h-12h-33q-73 0 -112.5 46.5t-39.5 137.5v571h137v-576q0 -46 33 -46q32 0 32 46v576h137v-571q0 -16 -1 -30.5t-4.5 -27.5t-5.5 -23t-8 -21t-8.5 -17t-10.5 -16t-10 -13t-11 -13t-10 -12q-45 -53 -45 -84v-4q0 -20 26 -20h18v-80h-58q-34 0 -56 17
t-22 47v15z" />
    <glyph glyph-name="uogonek" unicode="&#x173;" 
d="M319 538v-538h-124v66q-45 -68 -97 -68h-4q-36 0 -57 28.5t-21 64.5v447h129v-395q0 -33 22 -33q25 0 25 36v392h127zM183 -124v15q0 45 74 109h62q-44 -55 -44 -84v-4q0 -20 26 -20h18v-80h-58q-34 0 -56 17t-22 47z" />
    <glyph glyph-name="Wcircumflex" unicode="&#x174;" horiz-adv-x="568" 
d="M352 744h-127l-48 -477l-42 477h-138l93 -744h157l39 409l39 -409h151l95 744h-128l-44 -472zM336 885l66 -115h-89l-28 47l-27 -47h-89l65 115h102z" />
    <glyph glyph-name="wcircumflex" unicode="&#x175;" horiz-adv-x="494" 
d="M77 0h137l34 292l35 -292h133l82 538h-120l-35 -337l-36 337h-113l-37 -333l-35 333h-126zM300 700l62 -136h-91l-24 62l-25 -62h-89l61 136h106z" />
    <glyph glyph-name="Ycircumflex" unicode="&#x176;" horiz-adv-x="327" 
d="M235 293l100 451h-120l-45 -264l-45 264h-133l110 -456v-288h133v293zM220 885l66 -115h-89l-28 47l-27 -47h-89l65 115h102z" />
    <glyph glyph-name="ycircumflex" unicode="&#x177;" horiz-adv-x="311" 
d="M-4 538l93 -529q2 -16 1 -30l-2 -21q-2 -15 -6 -21t-16 -6h-53v-119h116q60 0 74 81l113 645h-123l-35 -297l-36 297h-126zM209 700l62 -136h-91l-24 62l-25 -62h-89l61 136h106z" />
    <glyph glyph-name="Ydieresis" unicode="&#x178;" horiz-adv-x="327" 
d="M335 744l-100 -451v-293h-133v288l-110 456h133l45 -264l45 264h120zM158 876v-106h-100v106h100zM283 876v-106h-100v106h100z" />
    <glyph glyph-name="Zacute" unicode="&#x179;" horiz-adv-x="330" 
d="M18 744h294v-118l-162 -496h173v-130h-316v120l162 496h-151v128zM107 770l43 115h106l-45 -115h-104z" />
    <glyph glyph-name="zacute" unicode="&#x17a;" horiz-adv-x="266" 
d="M14 538h241v-106l-124 -318h131v-114h-258v107l125 319h-115v112zM81 564l42 136h105l-44 -136h-103z" />
    <glyph glyph-name="Zdotaccent" unicode="&#x17b;" horiz-adv-x="330" 
d="M18 744h294v-118l-162 -496h173v-130h-316v120l162 496h-151v128zM230 896v-126h-128v126h128z" />
    <glyph glyph-name="zdotaccent" unicode="&#x17c;" horiz-adv-x="266" 
d="M14 538h241v-106l-124 -318h131v-114h-258v107l125 319h-115v112zM199 690v-126h-128v126h128z" />
    <glyph glyph-name="Zcaron" unicode="&#x17d;" horiz-adv-x="330" 
d="M18 744h294v-118l-162 -496h173v-130h-316v120l162 496h-151v128zM115 770l-66 115h90l27 -48l27 48h89l-66 -115h-101z" />
    <glyph glyph-name="zcaron" unicode="&#x17e;" horiz-adv-x="266" 
d="M14 538h241v-106l-124 -318h131v-114h-258v107l125 319h-115v112zM82 564l-62 136h91l24 -62l25 62h89l-62 -136h-105z" />
    <glyph glyph-name="uni0192" unicode="&#x192;" horiz-adv-x="272" 
d="M36 -188l26 550h-58v119h63l9 175q2 44 26 66t79 22h83v-113h-37q-14 0 -19.5 -5.5t-6.5 -21.5l-6 -123h69v-119h-75l-26 -550h-127z" />
    <glyph glyph-name="Aringacute" unicode="&#x1fa;" horiz-adv-x="345" 
d="M220 0l-14 125h-80l-12 -125h-118l94 744h158l101 -744h-129zM168 765q35 0 57.5 22t22.5 57t-22.5 57t-57.5 22t-57.5 -22t-22.5 -57t22.5 -57t57.5 -22zM118 939l43 115h106l-45 -115h-104zM165 508l-26 -255h54zM168 811q-15 0 -23.5 9.5t-8.5 23.5t8.5 23.5t23.5 9.5
t23.5 -9.5t8.5 -23.5t-8.5 -23.5t-23.5 -9.5z" />
    <glyph glyph-name="aringacute" unicode="&#x1fb;" 
d="M110 736l42 136h105l-44 -136h-103zM159 608q-15 0 -23.5 9.5t-8.5 23.5t8.5 23.5t23.5 9.5t23.5 -9.5t8.5 -23.5t-8.5 -23.5t-23.5 -9.5zM159 562q35 0 57.5 22t22.5 57t-22.5 57t-57.5 22t-57.5 -22t-22.5 -57t22.5 -57t57.5 -22zM180 134v131q-24 -13 -33 -25
q-12 -15 -12 -41v-65q0 -32 21 -32q24 0 24 32zM12 88v117q0 75 56 110q13 8 55 28.5t49 24.5q8 5 8 20v29q0 29 -22 29h-4q-22 0 -22 -29v-53h-114v74q0 44 28 75t98 31h23q75 0 105.5 -30.5t30.5 -87.5v-297q0 -9 3.5 -12t15.5 -3h14v-114h-119q-37 0 -37 61
q-36 -66 -91 -66h-4q-35 0 -54 27.5t-19 65.5z" />
    <glyph glyph-name="AEacute" unicode="&#x1fc;" horiz-adv-x="511" 
d="M504 0h-281v131h-81l-22 -131h-128l140 744h362v-132h-138v-161h107v-135h-107v-182h148v-134zM257 770l43 115h106l-45 -115h-104zM164 258h59v344z" />
    <glyph glyph-name="aeacute" unicode="&#x1fd;" horiz-adv-x="485" 
d="M191 63q-40 -68 -101 -68h-4q-35 0 -54.5 27.5t-19.5 65.5v98q0 75 56 110q13 8 55 28.5t49 24.5q8 5 8 20v48q0 29 -22 29h-4q-22 0 -22 -29v-72h-114v93q0 44 28 75t98 31h23q53 0 80 -27q25 31 80 31h15q132 0 132 -147v-150h-171v-117q0 -32 24 -32q25 0 25 32v80
h122v-90q0 -62 -35 -98t-102 -36h-21q-98 0 -125 73zM193 564l42 136h105l-44 -136h-103zM180 134v112q-24 -13 -33 -25q-12 -15 -12 -41v-46q0 -32 21 -32q24 0 24 32zM303 417v-70h52v69q0 32 -26 32t-26 -31z" />
    <glyph glyph-name="Oslashacute" unicode="&#x1fe;" horiz-adv-x="377" 
d="M361 170v394q0 59 -16 97l33 83h-74l-10 -24q-36 33 -93 33h-25q-160 0 -160 -190v-393q0 -48 15 -88l-33 -82h74l10 24q38 -35 96 -35h25q74 0 116 49t42 132zM190 122q-39 0 -39 44v22l75 206v-228q0 -44 -36 -44zM189 623q37 0 37 -49v-15l-75 -209v224q0 49 38 49z
M135 771l43 114h106l-45 -114h-104z" />
    <glyph glyph-name="oslashacute" unicode="&#x1ff;" horiz-adv-x="332" 
d="M13 142q0 -43 14 -72l-36 -70h67l10 20q36 -30 85 -30h26q65 0 102.5 43t37.5 111v255q0 37 -12 70l35 69h-66l-10 -19q-36 29 -87 29h-26q-66 0 -103 -39.5t-37 -111.5v-255zM114 566l42 134h105l-44 -134h-103zM194 401v-14l-56 -123v137q0 37 28 37t28 -37zM166 105
q-28 0 -28 38v8l56 121v-129q0 -38 -28 -38z" />
    <glyph glyph-name="uni0218" unicode="&#x218;" horiz-adv-x="355" 
d="M166 753h27q76 0 109.5 -35.5t33.5 -110.5v-100h-128v93q0 39 -29 39t-29 -40v-17q0 -50 41 -96l76 -85q47 -53 64 -96t17 -95v-35q0 -86 -41 -135t-121 -49h-26q-152 0 -152 154v134h131v-119q0 -45 34 -45q33 0 33 54v14q0 41 -7.5 63t-35.5 53l-77 85q-71 77 -71 189
v32q0 71 40.5 109.5t110.5 38.5zM205 -205h-51q11 31 14 67h-43v110h102v-70q0 -52 -22 -107z" />
    <glyph glyph-name="uni0219" unicode="&#x219;" horiz-adv-x="298" 
d="M287 446v-73h-114v56q0 28 -21 28t-21 -28v-11q0 -29 23 -52l71 -70q40 -40 54.5 -72.5t14.5 -76.5v-18q0 -60 -33.5 -99t-99.5 -39h-26q-66 0 -98 32.5t-32 84.5v88h118v-72q0 -30 23 -30h1q21 0 21 31v12q0 40 -28 67l-68 65q-34 33 -47 65.5t-13 76.5v17q0 56 32 88
t94 32h27q122 0 122 -102zM177 -204h-51q11 31 14 67h-43v110h102v-70q0 -52 -22 -107z" />
    <glyph glyph-name="uni021A" unicode="&#x21a;" 
d="M6 744h323v-131h-95v-613h-133v613h-95v131zM197 -203h-51q11 31 14 67h-43v110h102v-70q0 -52 -22 -107z" />
    <glyph glyph-name="uni021B" unicode="&#x21b;" horiz-adv-x="263" 
d="M254 0h-128q-26 0 -43.5 19t-17.5 47v353h-61v119h61v178h127v-178h62v-119h-62v-276q0 -12 3.5 -17t15.5 -5h43v-121zM147 -203h51q22 55 22 107v70h-102v-110h43q-3 -36 -14 -67z" />
    <glyph glyph-name="uni0237" unicode="&#x237;" horiz-adv-x="161" 
d="M-53 -69h52q10 0 14 4.5t4 16.5v586h128v-654q0 -30 -20.5 -51t-53.5 -21h-124v119z" />
    <glyph glyph-name="circumflex" unicode="&#x2c6;" horiz-adv-x="338" 
d="M222 700l62 -136h-91l-24 62l-25 -62h-89l61 136h106z" />
    <glyph glyph-name="caron" unicode="&#x2c7;" horiz-adv-x="338" 
d="M117 564l-62 136h91l24 -62l25 62h89l-62 -136h-105z" />
    <glyph glyph-name="breve" unicode="&#x2d8;" horiz-adv-x="338" 
d="M172 563h-3q-48 0 -78 28.5t-30 80.5v8h85v-6q0 -33 24 -33h1q24 0 24 33v6h83v-8q0 -51 -30.5 -80t-75.5 -29z" />
    <glyph glyph-name="dotaccent" unicode="&#x2d9;" horiz-adv-x="338" 
d="M233 690v-126h-128v126h128z" />
    <glyph glyph-name="ring" unicode="&#x2da;" horiz-adv-x="338" 
d="M169 608q15 0 23.5 9.5t8.5 23.5t-8.5 23.5t-23.5 9.5t-23.5 -9.5t-8.5 -23.5t8.5 -23.5t23.5 -9.5zM169 562q-35 0 -57.5 22t-22.5 57t22.5 57t57.5 22t57.5 -22t22.5 -57t-22.5 -57t-57.5 -22z" />
    <glyph glyph-name="ogonek" unicode="&#x2db;" horiz-adv-x="338" 
d="M100 -124v15q0 45 74 109h62q-44 -55 -44 -84v-4q0 -20 26 -20h18v-80h-58q-34 0 -56 17t-22 47z" />
    <glyph glyph-name="tilde" unicode="&#x2dc;" horiz-adv-x="338" 
d="M204 678h73v-56q0 -25 -15 -42t-39 -17q-22 0 -60 19q-19 9 -23 9q-7 0 -7 -12v-16h-72v47q0 31 14.5 49.5t40.5 18.5q20 0 59 -18q19 -8 23 -8q6 0 6 10v16z" />
    <glyph glyph-name="hungarumlaut" unicode="&#x2dd;" horiz-adv-x="338" 
d="M58 564l24 136h88l-26 -136h-86zM167 564l25 136h88l-28 -136h-85z" />
    <glyph glyph-name="Wgrave" unicode="&#x1e80;" horiz-adv-x="568" 
d="M352 744h-127l-48 -477l-42 477h-138l93 -744h157l39 409l39 -409h151l95 744h-128l-44 -472zM296 885l43 -115h-104l-44 115h105z" />
    <glyph glyph-name="wgrave" unicode="&#x1e81;" horiz-adv-x="494" 
d="M77 0h137l34 292l35 -292h133l82 538h-120l-35 -337l-36 337h-113l-37 -333l-35 333h-126zM258 700l41 -136h-102l-45 136h106z" />
    <glyph glyph-name="Wacute" unicode="&#x1e82;" horiz-adv-x="568" 
d="M352 744h-127l-48 -477l-42 477h-138l93 -744h157l39 409l39 -409h151l95 744h-128l-44 -472zM236 770l43 115h106l-45 -115h-104z" />
    <glyph glyph-name="wacute" unicode="&#x1e83;" horiz-adv-x="494" 
d="M77 0h137l34 292l35 -292h133l82 538h-120l-35 -337l-36 337h-113l-37 -333l-35 333h-126zM200 564l42 136h105l-44 -136h-103z" />
    <glyph glyph-name="Wdieresis" unicode="&#x1e84;" horiz-adv-x="568" 
d="M225 744h127l47 -472l44 472h128l-95 -744h-151l-39 409l-39 -409h-157l-93 744h138l42 -477zM398 876v-106h-100v106h100zM273 876v-106h-100v106h100z" />
    <glyph glyph-name="wdieresis" unicode="&#x1e85;" horiz-adv-x="494" 
d="M214 0h-137l-81 538h126l35 -333l37 333h113l36 -337l35 337h120l-82 -538h-133l-35 292zM236 670v-106h-100v106h100zM360 670v-106h-100v106h100z" />
    <glyph glyph-name="Ygrave" unicode="&#x1ef2;" horiz-adv-x="327" 
d="M235 293l100 451h-120l-45 -264l-45 264h-133l110 -456v-288h133v293zM179 885l43 -115h-104l-44 115h105z" />
    <glyph glyph-name="ygrave" unicode="&#x1ef3;" horiz-adv-x="311" 
d="M-4 538l93 -529q2 -16 1 -30l-2 -21q-2 -15 -6 -21t-16 -6h-53v-119h116q60 0 74 81l113 645h-123l-35 -297l-36 297h-126zM171 700l41 -136h-102l-45 136h106z" />
    <glyph glyph-name="uni2009" unicode="&#x2009;" horiz-adv-x="12" 
 />
    <glyph glyph-name="endash" unicode="&#x2013;" horiz-adv-x="334" 
d="M13 345h308v-90h-308v90z" />
    <glyph glyph-name="emdash" unicode="&#x2014;" horiz-adv-x="506" 
d="M13 345h480v-90h-480v90z" />
    <glyph glyph-name="quoteleft" unicode="&#x2018;" horiz-adv-x="135" 
d="M36 744h63q-18 -55 -19 -92h43v-128h-111v103q0 61 24 117z" />
    <glyph glyph-name="quoteright" unicode="&#x2019;" horiz-adv-x="135" 
d="M99 524h-63q18 55 19 92h-43v128h111v-103q0 -61 -24 -117z" />
    <glyph glyph-name="quotesinglbase" unicode="&#x201a;" horiz-adv-x="135" 
d="M99 -92h-63q18 55 19 92h-43v128h111v-103q0 -61 -24 -117z" />
    <glyph glyph-name="quotedblleft" unicode="&#x201c;" horiz-adv-x="263" 
d="M36 744h63q-18 -55 -19 -92h43v-128h-111v103q0 61 24 117zM164 744h63q-18 -55 -19 -92h43v-128h-111v103q0 61 24 117z" />
    <glyph glyph-name="quotedblright" unicode="&#x201d;" horiz-adv-x="263" 
d="M99 524h-63q18 55 19 92h-43v128h111v-103q0 -61 -24 -117zM227 524h-63q18 55 19 92h-43v128h111v-103q0 -61 -24 -117z" />
    <glyph glyph-name="quotedblbase" unicode="&#x201e;" horiz-adv-x="263" 
d="M99 -92h-63q18 55 19 92h-43v128h111v-103q0 -61 -24 -117zM227 -92h-63q18 55 19 92h-43v128h111v-103q0 -61 -24 -117z" />
    <glyph glyph-name="dagger" unicode="&#x2020;" horiz-adv-x="267" 
d="M69 0v475h-64v126h64v143h129v-143h64v-126h-64v-475h-129z" />
    <glyph glyph-name="daggerdbl" unicode="&#x2021;" horiz-adv-x="267" 
d="M69 144h-64v125h64v206h-64v125h64v144h129v-144h64v-125h-64v-206h64v-125h-64v-144h-129v144z" />
    <glyph glyph-name="bullet" unicode="&#x2022;" horiz-adv-x="232" 
d="M116 221q-46 0 -75.5 31t-29.5 77t29.5 77.5t75.5 31.5q45 0 75 -31.5t30 -77.5t-30 -77t-75 -31z" />
    <glyph glyph-name="ellipsis" unicode="&#x2026;" horiz-adv-x="424" 
d="M292 144h119v-144h-119v144zM152 0v144h119v-144h-119zM132 0h-119v144h119v-144z" />
    <glyph glyph-name="perthousand" unicode="&#x2030;" horiz-adv-x="725" 
d="M616 -5h-19q-46 0 -73 28t-27 79v128q0 52 27 80t73 28h19q47 0 73 -28.5t26 -79.5v-128q0 -50 -26.5 -78.5t-72.5 -28.5zM382 -5h-20q-46 0 -72.5 27.5t-26.5 79.5v128q0 52 26.5 80t72.5 28h20q46 0 72 -28.5t26 -79.5v-128q0 -50 -26 -78.5t-72 -28.5zM10 515v128
q0 52 26.5 79.5t72.5 27.5h20q46 0 72 -28t26 -79v-128q0 -50 -26 -79t-72 -29h-20q-46 0 -72.5 28t-26.5 80zM344 744h83l-279 -744h-83zM606 75q17 0 17 20v143q0 20 -17 20q-16 0 -16 -20v-143q0 -20 16 -20zM135 508v143q0 20 -17 20q-16 0 -16 -20v-143q0 -20 16 -20
q17 0 17 20zM371 75q17 0 17 20v143q0 20 -17 20q-16 0 -16 -20v-143q0 -20 16 -20z" />
    <glyph glyph-name="uni2032" unicode="&#x2032;" horiz-adv-x="115" 
d="M115 744l-22 -191h-93l21 191h94z" />
    <glyph glyph-name="uni2033" unicode="&#x2033;" horiz-adv-x="224" 
d="M113 744l-22 -191h-91l21 191h92zM224 744l-22 -191h-92l23 191h91z" />
    <glyph glyph-name="guilsinglleft" unicode="&#x2039;" horiz-adv-x="159" 
d="M108 286l45 -167h-99l-44 137v60l44 135h100z" />
    <glyph glyph-name="guilsinglright" unicode="&#x203a;" horiz-adv-x="159" 
d="M50 285l-44 166h100l43 -136v-60l-43 -136h-101z" />
    <glyph glyph-name="fraction" unicode="&#x2044;" horiz-adv-x="348" 
d="M267 744h81l-267 -744h-81z" />
    <glyph glyph-name="Euro" unicode="&#x20ac;" horiz-adv-x="412" 
d="M5 291v84h55v26h-55v84h55v99q0 74 37.5 121.5t116.5 47.5h31q153 0 153 -164v-81h-132v76q0 43 -34 43q-33 0 -33 -43v-99h131v-84h-131v-26h131v-84h-131v-126q0 -45 34 -45q33 0 33 45v101h132v-105q0 -75 -36 -123.5t-117 -48.5h-31q-154 0 -154 176v126h-55z" />
    <glyph glyph-name="trademark" unicode="&#x2122;" horiz-adv-x="345" 
d="M150 463v281h79l15 -122l13 122h78v-281h-57v159l-22 -159h-28l-21 159v-159h-57zM137 744v-64h-31v-217h-72v217h-30v64h133z" />
    <glyph glyph-name="onethird" unicode="&#x2153;" horiz-adv-x="415" 
d="M275 744h81l-267 -744h-81zM292 228h-77v36q0 84 85 84h12q88 0 88 -81v-23q0 -42 -30 -54q37 -14 37 -54v-55q0 -86 -92 -86h-14q-87 0 -87 79v51h80v-46q0 -17 13 -17q12 0 12 17v49q0 15 -13 15h-39v69h37q14 0 14 16v38q0 18 -13 18t-13 -18v-38zM47 638h-43v66
q29 0 40.5 10.5t14.5 29.5h72v-340h-84v234z" />
    <glyph glyph-name="twothirds" unicode="&#x2154;" horiz-adv-x="490" 
d="M350 744h81l-267 -744h-81zM211 402h-206v44q0 29 15 55.5t65 82.5q22 25 26.5 36.5t4.5 30.5v16q0 17 -14 17q-13 0 -13 -17v-53h-78v57q0 34 19.5 56.5t63.5 22.5h15q94 0 94 -79v-18q0 -34 -14 -58.5t-49 -56.5q-41 -37 -48.5 -46.5t-7.5 -21.5h53v54h74v-122z
M367 228h-77v36q0 84 85 84h12q88 0 88 -81v-23q0 -42 -30 -54q37 -14 37 -54v-55q0 -86 -92 -86h-14q-87 0 -87 79v51h80v-46q0 -17 13 -17q12 0 12 17v49q0 15 -13 15h-39v69h37q14 0 14 16v38q0 18 -13 18t-13 -18v-38z" />
    <glyph glyph-name="oneeighth" unicode="&#x215b;" horiz-adv-x="416" 
d="M405 243v26q0 79 -91 79h-9q-90 0 -90 -79v-26q0 -41 30 -61q-33 -16 -33 -64v-37q0 -86 93 -86h9q47 0 70.5 22.5t23.5 62.5v38q0 49 -35 64q32 20 32 61zM275 744h81l-267 -744h-81zM47 638h-43v66q29 0 40.5 10.5t14.5 29.5h72v-340h-84v234zM323 129v-48
q0 -17 -14 -17q-13 0 -13 17v48q0 19 13 19q14 0 14 -19zM322 265v-37q0 -17 -12 -17q-13 0 -13 17v37q0 18 12 18q13 0 13 -18z" />
    <glyph glyph-name="threeeighths" unicode="&#x215c;" horiz-adv-x="468" 
d="M457 243v26q0 79 -91 79h-9q-90 0 -90 -79v-26q0 -41 30 -61q-33 -16 -33 -64v-37q0 -86 93 -86h9q47 0 70.5 22.5t23.5 62.5v38q0 49 -35 64q32 20 32 61zM327 744h81l-267 -744h-81zM87 630h-77v36q0 84 85 84h12q88 0 88 -81v-23q0 -42 -30 -54q37 -14 37 -54v-55
q0 -86 -92 -86h-14q-87 0 -87 79v51h80v-46q0 -17 13 -17q12 0 12 17v49q0 15 -13 15h-39v69h37q14 0 14 16v38q0 18 -13 18t-13 -18v-38zM375 129v-48q0 -17 -14 -17q-13 0 -13 17v48q0 19 13 19q14 0 14 -19zM374 265v-37q0 -17 -12 -17q-13 0 -13 17v37q0 18 12 18
q13 0 13 -18z" />
    <glyph glyph-name="fiveeighths" unicode="&#x215d;" horiz-adv-x="468" 
d="M457 243v26q0 79 -91 79h-9q-90 0 -90 -79v-26q0 -41 30 -61q-33 -16 -33 -64v-37q0 -86 93 -86h9q47 0 70.5 22.5t23.5 62.5v38q0 49 -35 64q32 20 32 61zM327 744h81l-267 -744h-81zM91 545h-78v199h180v-71h-103v-61q28 37 58 37q55 0 55 -65v-93q0 -94 -90 -94h-15
q-89 0 -89 82v40h83v-41q0 -15 12 -15t12 15v83q0 18 -12 18q-13 0 -13 -18v-16zM375 129v-48q0 -17 -14 -17q-13 0 -13 17v48q0 19 13 19q14 0 14 -19zM374 265v-37q0 -17 -12 -17q-13 0 -13 17v37q0 18 12 18q13 0 13 -18z" />
    <glyph glyph-name="seveneighths" unicode="&#x215e;" horiz-adv-x="433" 
d="M422 243v26q0 79 -91 79h-9q-90 0 -90 -79v-26q0 -41 30 -61q-33 -16 -33 -64v-37q0 -86 93 -86h9q47 0 70.5 22.5t23.5 62.5v38q0 49 -35 64q32 20 32 61zM292 744h81l-267 -744h-81zM9 744h180v-36q0 -9 -2.5 -23.5t-5.5 -29t-9 -43t-11 -51.5q-13 -64 -13 -158h-98
q0 71 28 150q40 108 40 129h-35v-59h-74v121zM340 129v-48q0 -17 -14 -17q-13 0 -13 17v48q0 19 13 19q14 0 14 -19zM339 265v-37q0 -17 -12 -17q-13 0 -13 17v37q0 18 12 18q13 0 13 -18z" />
    <glyph glyph-name="minus" unicode="&#x2212;" horiz-adv-x="316" 
d="M13 346h290v-91h-290v91z" />
    <glyph glyph-name="uni24C5" unicode="&#x24c5;" horiz-adv-x="515" 
d="M264 -11h-10q-237 0 -237 255v258q0 123 62.5 188t175.5 65h12q113 0 172 -63.5t59 -189.5v-258q0 -129 -63.5 -192t-170.5 -63zM256 56h8q158 0 158 203v230q0 199 -156 199h-10q-86 0 -123.5 -50t-37.5 -149v-230q0 -203 161 -203zM294 312h-44v-192h-103v506h147
q49 0 71.5 -22t22.5 -78v-112q0 -102 -94 -102zM250 542v-146h15q21 0 21 30v88q0 16 -4.5 22t-16.5 6h-15z" />
    <glyph glyph-name="E.alt" unicode="&#xe484;" horiz-adv-x="306" 
d="M19 744h275v-131h-142v-162h135v-134h-135v-183h146v-134h-279v744z" />
    <glyph glyph-name="F.alt" unicode="&#xe485;" horiz-adv-x="302" 
d="M19 744h274v-131h-141v-162h134v-134h-134v-317h-133v744z" />
    <glyph glyph-name="J.alt" unicode="&#xe489;" horiz-adv-x="236" 
d="M7 0v134h54q19 0 19 25v585h138v-657q0 -43 -21 -65t-57 -22h-133z" />
    <glyph glyph-name="a.alt" unicode="&#xe4c0;" horiz-adv-x="320" 
d="M303 426v-303q0 -85 11 -118v-5h-122q-12 14 -12 61q-36 -66 -91 -66h-4q-35 0 -54 27.5t-19 65.5v117q0 75 56 110q13 8 55 28.5t49 24.5q8 5 8 20v29q0 29 -22 29h-4q-22 0 -22 -29v-53h-114v74q0 44 28 75t98 31h23q75 0 105.5 -30.5t30.5 -87.5zM180 134v131
q-24 -13 -33 -25q-12 -15 -12 -41v-65q0 -32 21 -32q24 0 24 32z" />
    <glyph glyph-name="r.alt" unicode="&#xe4d1;" horiz-adv-x="271" 
d="M143 538v-80q31 84 84 84h7q16 0 28 -4v-146q-25 9 -55 9h-4q-32 0 -45.5 -10.5t-13.5 -32.5v-358h-128v538h127z" />
    <glyph glyph-name="idotaccent" horiz-adv-x="160" 
d="M144 538v-538h-128v538h128zM144 690v-126h-128v126h128z" />
    <glyph glyph-name="space_uni0326" horiz-adv-x="338" 
d="M198 -203h-51q11 31 14 67h-43v110h102v-70q0 -52 -22 -107z" />
    <glyph glyph-name="zero.num" horiz-adv-x="227" 
d="M108 750h12q97 0 97 -98v-163q0 -42 -26.5 -67t-70.5 -25h-14q-44 0 -69.5 24.5t-25.5 67.5v163q0 46 24.5 72t72.5 26zM114 675q-15 0 -15 -21v-161q0 -19 14 -19q16 0 16 19v161q0 21 -15 21z" />
    <glyph glyph-name="one.num" horiz-adv-x="147" 
d="M47 638h-43v66q29 0 40.5 10.5t14.5 29.5h72v-340h-84v234z" />
    <glyph glyph-name="two.num" horiz-adv-x="220" 
d="M211 402h-206v44q0 29 15 55.5t65 82.5q22 25 26.5 36.5t4.5 30.5v16q0 17 -14 17q-13 0 -13 -17v-53h-78v57q0 34 19.5 56.5t63.5 22.5h15q94 0 94 -79v-18q0 -34 -14 -58.5t-49 -56.5q-41 -37 -48.5 -46.5t-7.5 -21.5h53v54h74v-122z" />
    <glyph glyph-name="three.num" horiz-adv-x="210" 
d="M87 630h-77v36q0 84 85 84h12q88 0 88 -81v-23q0 -42 -30 -54q37 -14 37 -54v-55q0 -86 -92 -86h-14q-87 0 -87 79v51h80v-46q0 -17 13 -17q12 0 12 17v49q0 15 -13 15h-39v69h37q14 0 14 16v38q0 18 -13 18t-13 -18v-38z" />
    <glyph glyph-name="four.num" horiz-adv-x="208" 
d="M5 462v58q55 134 86 225h83v-211h28v-72h-28v-59h-80v59h-89zM63 534h31v87q-14 -47 -31 -87z" />
    <glyph glyph-name="five.num" horiz-adv-x="211" 
d="M91 545h-78v199h180v-71h-103v-61q28 37 58 37q55 0 55 -65v-93q0 -94 -90 -94h-15q-89 0 -89 82v40h83v-41q0 -15 12 -15t12 15v83q0 18 -12 18q-13 0 -13 -18v-16z" />
    <glyph glyph-name="six.num" horiz-adv-x="222" 
d="M159 623q27 0 40.5 -17.5t13.5 -43.5v-75q0 -40 -26 -65t-74 -25q-52 0 -77 25t-25 66v174q0 38 22.5 63t76.5 25t75 -22.5t21 -62.5v-26h-84v26q0 16 -13 16q-11 0 -11 -16v-74q25 32 61 32zM111 466q15 0 15 20v54q0 21 -15 21q-13 0 -13 -21v-54q0 -20 13 -20z" />
    <glyph glyph-name="seven.num" horiz-adv-x="194" 
d="M9 744h180v-36q0 -9 -2.5 -23.5t-5.5 -29t-9 -43t-11 -51.5q-13 -64 -13 -158h-98q0 71 28 150q40 108 40 129h-35v-59h-74v121z" />
    <glyph glyph-name="eight.num" horiz-adv-x="213" 
d="M202 671v-26q0 -41 -32 -61q35 -15 35 -64v-38q0 -40 -23.5 -62.5t-70.5 -22.5h-9q-93 0 -93 86v37q0 48 33 64q-30 20 -30 61v26q0 79 90 79h9q91 0 91 -79zM120 483v48q0 19 -14 19q-13 0 -13 -19v-48q0 -17 13 -17q14 0 14 17zM119 630v37q0 18 -13 18q-12 0 -12 -18
v-37q0 -17 13 -17q12 0 12 17z" />
    <glyph glyph-name="nine.num" horiz-adv-x="222" 
d="M9 660q0 41 24.5 65.5t75.5 24.5q102 0 102 -90v-175q0 -37 -22.5 -62.5t-77.5 -25.5t-75 22t-20 61v28h84v-26q0 -16 13 -16q11 0 11 16v74q-23 -32 -59 -32q-26 0 -41 18.5t-15 43.5v74zM110 681q-15 0 -15 -20v-55q0 -20 15 -20q14 0 14 20v55q0 20 -14 20z" />
    <glyph glyph-name="zero.den" horiz-adv-x="227" 
d="M108 348h12q97 0 97 -98v-163q0 -42 -26.5 -67t-70.5 -25h-14q-44 0 -69.5 24.5t-25.5 67.5v163q0 46 24.5 72t72.5 26zM114 273q-15 0 -15 -21v-161q0 -19 14 -19q16 0 16 19v161q0 21 -15 21z" />
    <glyph glyph-name="one.den" horiz-adv-x="147" 
d="M47 234h-43v66q29 0 40.5 10.5t14.5 29.5h72v-340h-84v234z" />
    <glyph glyph-name="two.den" horiz-adv-x="220" 
d="M211 0h-206v44q0 28 15 55t65 83q22 25 26.5 36.5t4.5 30.5v16q0 17 -14 17q-13 0 -13 -17v-53h-78v57q0 34 19.5 56.5t63.5 22.5h15q94 0 94 -79v-18q0 -34 -14 -58.5t-49 -56.5q-41 -37 -48.5 -46.5t-7.5 -21.5h53v54h74v-122z" />
    <glyph glyph-name="three.den" horiz-adv-x="210" 
d="M87 228h-77v36q0 84 85 84h12q88 0 88 -81v-23q0 -42 -30 -54q37 -14 37 -54v-55q0 -86 -92 -86h-14q-87 0 -87 79v51h80v-46q0 -17 13 -17q12 0 12 17v49q0 15 -13 15h-39v69h37q14 0 14 16v38q0 18 -13 18t-13 -18v-38z" />
    <glyph glyph-name="four.den" horiz-adv-x="208" 
d="M5 59v58q55 134 86 225h83v-211h28v-72h-28v-59h-80v59h-89zM63 131h31v87q-14 -47 -31 -87z" />
    <glyph glyph-name="five.den" horiz-adv-x="211" 
d="M91 143h-78v199h180v-71h-103v-61q28 37 58 37q55 0 55 -65v-93q0 -94 -90 -94h-15q-89 0 -89 82v40h83v-41q0 -15 12 -15t12 15v83q0 18 -12 18q-13 0 -13 -18v-16z" />
    <glyph glyph-name="six.den" horiz-adv-x="222" 
d="M159 221q27 0 40.5 -17.5t13.5 -43.5v-75q0 -40 -26 -65t-74 -25q-52 0 -77 25t-25 66v174q0 38 22.5 63t76.5 25t75 -22.5t21 -62.5v-26h-84v26q0 16 -13 16q-11 0 -11 -16v-74q25 32 61 32zM111 64q15 0 15 20v54q0 21 -15 21q-13 0 -13 -21v-54q0 -20 13 -20z" />
    <glyph glyph-name="seven.den" horiz-adv-x="194" 
d="M9 341h180v-36q0 -9 -2.5 -23.5t-5.5 -29t-9 -43t-11 -51.5q-13 -64 -13 -158h-98q0 71 28 150q40 108 40 129h-35v-59h-74v121z" />
    <glyph glyph-name="eight.den" horiz-adv-x="213" 
d="M202 269v-26q0 -41 -32 -61q35 -15 35 -64v-38q0 -40 -23.5 -62.5t-70.5 -22.5h-9q-93 0 -93 86v37q0 48 33 64q-30 20 -30 61v26q0 79 90 79h9q91 0 91 -79zM120 81v48q0 19 -14 19q-13 0 -13 -19v-48q0 -17 13 -17q14 0 14 17zM119 228v37q0 18 -13 18q-12 0 -12 -18
v-37q0 -17 13 -17q12 0 12 17z" />
    <glyph glyph-name="nine.den" horiz-adv-x="222" 
d="M9 258q0 41 24.5 65.5t75.5 24.5q102 0 102 -90v-175q0 -37 -22.5 -62.5t-77.5 -25.5t-75 22t-20 61v28h84v-26q0 -16 13 -16q11 0 11 16v74q-23 -32 -59 -32q-26 0 -41 18.5t-15 43.5v74zM110 279q-15 0 -15 -20v-55q0 -20 15 -20q14 0 14 20v55q0 20 -14 20z" />
    <glyph glyph-name="zero.sub" horiz-adv-x="227" 
d="M108 246h12q97 0 97 -98v-163q0 -42 -26.5 -67t-70.5 -25h-14q-44 0 -69.5 24.5t-25.5 67.5v163q0 46 24.5 72t72.5 26zM114 171q-15 0 -15 -21v-161q0 -19 14 -19q16 0 16 19v161q0 21 -15 21z" />
    <glyph glyph-name="one.sub" horiz-adv-x="147" 
d="M47 132h-43v66q29 0 40.5 10.5t14.5 29.5h72v-340h-84v234z" />
    <glyph glyph-name="two.sub" horiz-adv-x="220" 
d="M211 -102h-206v44q0 28 15 55t65 83q22 25 26.5 36.5t4.5 30.5v16q0 17 -14 17q-13 0 -13 -17v-53h-78v57q0 34 19.5 56.5t63.5 22.5h15q94 0 94 -79v-18q0 -34 -14 -58.5t-49 -56.5q-41 -37 -48.5 -46.5t-7.5 -21.5h53v54h74v-122z" />
    <glyph glyph-name="three.sub" horiz-adv-x="210" 
d="M87 126h-77v36q0 84 85 84h12q88 0 88 -81v-23q0 -42 -30 -54q37 -14 37 -54v-55q0 -86 -92 -86h-14q-87 0 -87 79v51h80v-46q0 -17 13 -17q12 0 12 17v49q0 15 -13 15h-39v69h37q14 0 14 16v38q0 18 -13 18t-13 -18v-38z" />
    <glyph glyph-name="four.sub" horiz-adv-x="208" 
d="M5 -43v58q55 134 86 225h83v-211h28v-72h-28v-59h-80v59h-89zM63 29h31v87q-14 -47 -31 -87z" />
    <glyph glyph-name="five.sub" horiz-adv-x="211" 
d="M91 41h-78v199h180v-71h-103v-61q28 37 58 37q55 0 55 -65v-93q0 -94 -90 -94h-15q-89 0 -89 82v40h83v-41q0 -15 12 -15t12 15v83q0 18 -12 18q-13 0 -13 -18v-16z" />
    <glyph glyph-name="six.sub" horiz-adv-x="222" 
d="M159 119q27 0 40.5 -17.5t13.5 -43.5v-75q0 -40 -26 -65t-74 -25q-52 0 -77 25t-25 66v174q0 38 22.5 63t76.5 25t75 -22.5t21 -62.5v-26h-84v26q0 16 -13 16q-11 0 -11 -16v-74q25 32 61 32zM111 -38q15 0 15 20v54q0 21 -15 21q-13 0 -13 -21v-54q0 -20 13 -20z" />
    <glyph glyph-name="seven.sub" horiz-adv-x="194" 
d="M9 239h180v-36q0 -9 -2.5 -23.5t-5.5 -29t-9 -43t-11 -51.5q-13 -64 -13 -158h-98q0 71 28 150q40 108 40 129h-35v-59h-74v121z" />
    <glyph glyph-name="eight.sub" horiz-adv-x="213" 
d="M202 167v-26q0 -41 -32 -61q35 -15 35 -64v-38q0 -40 -23.5 -62.5t-70.5 -22.5h-9q-93 0 -93 86v37q0 48 33 64q-30 20 -30 61v26q0 79 90 79h9q91 0 91 -79zM120 -21v48q0 19 -14 19q-13 0 -13 -19v-48q0 -17 13 -17q14 0 14 17zM119 126v37q0 18 -13 18q-12 0 -12 -18
v-37q0 -17 13 -17q12 0 12 17z" />
    <glyph glyph-name="nine.sub" horiz-adv-x="222" 
d="M9 156q0 41 24.5 65.5t75.5 24.5q102 0 102 -90v-175q0 -37 -22.5 -62.5t-77.5 -25.5t-75 22t-20 61v28h84v-26q0 -16 13 -16q11 0 11 16v74q-23 -32 -59 -32q-26 0 -41 18.5t-15 43.5v74zM110 177q-15 0 -15 -20v-55q0 -20 15 -20q14 0 14 20v55q0 20 -14 20z" />
    <glyph glyph-name="zero.sup" horiz-adv-x="227" 
d="M108 750h12q97 0 97 -98v-163q0 -42 -26.5 -67t-70.5 -25h-14q-44 0 -69.5 24.5t-25.5 67.5v163q0 46 24.5 72t72.5 26zM114 675q-15 0 -15 -21v-161q0 -19 14 -19q16 0 16 19v161q0 21 -15 21z" />
    <glyph glyph-name="one.sup" horiz-adv-x="147" 
d="M47 638h-43v66q29 0 40.5 10.5t14.5 29.5h72v-340h-84v234z" />
    <glyph glyph-name="two.sup" horiz-adv-x="220" 
d="M211 402h-206v44q0 29 15 55.5t65 82.5q22 25 26.5 36.5t4.5 30.5v16q0 17 -14 17q-13 0 -13 -17v-53h-78v57q0 34 19.5 56.5t63.5 22.5h15q94 0 94 -79v-18q0 -34 -14 -58.5t-49 -56.5q-41 -37 -48.5 -46.5t-7.5 -21.5h53v54h74v-122z" />
    <glyph glyph-name="three.sup" horiz-adv-x="210" 
d="M87 630h-77v36q0 84 85 84h12q88 0 88 -81v-23q0 -42 -30 -54q37 -14 37 -54v-55q0 -86 -92 -86h-14q-87 0 -87 79v51h80v-46q0 -17 13 -17q12 0 12 17v49q0 15 -13 15h-39v69h37q14 0 14 16v38q0 18 -13 18t-13 -18v-38z" />
    <glyph glyph-name="four.sup" horiz-adv-x="208" 
d="M5 520q55 134 86 225h83v-211h28v-72h-28v-59h-80v59h-89v58zM63 534h31v87q-14 -47 -31 -87z" />
    <glyph glyph-name="five.sup" horiz-adv-x="211" 
d="M91 545h-78v199h180v-71h-103v-61q28 37 58 37q55 0 55 -65v-93q0 -94 -90 -94h-15q-89 0 -89 82v40h83v-41q0 -15 12 -15t12 15v83q0 18 -12 18q-13 0 -13 -18v-16z" />
    <glyph glyph-name="six.sup" horiz-adv-x="222" 
d="M159 623q27 0 40.5 -17.5t13.5 -43.5v-75q0 -40 -26 -65t-74 -25q-52 0 -77 25t-25 66v174q0 38 22.5 63t76.5 25t75 -22.5t21 -62.5v-26h-84v26q0 16 -13 16q-11 0 -11 -16v-74q25 32 61 32zM111 466q15 0 15 20v54q0 21 -15 21q-13 0 -13 -21v-54q0 -20 13 -20z" />
    <glyph glyph-name="seven.sup" horiz-adv-x="194" 
d="M9 744h180v-36q0 -9 -2.5 -23.5t-5.5 -29t-9 -43t-11 -51.5q-13 -64 -13 -158h-98q0 71 28 150q40 108 40 129h-35v-59h-74v121z" />
    <glyph glyph-name="eight.sup" horiz-adv-x="213" 
d="M202 671v-26q0 -41 -32 -61q35 -15 35 -64v-38q0 -40 -23.5 -62.5t-70.5 -22.5h-9q-93 0 -93 86v37q0 48 33 64q-30 20 -30 61v26q0 79 90 79h9q91 0 91 -79zM120 483v48q0 19 -14 19q-13 0 -13 -19v-48q0 -17 13 -17q14 0 14 17zM119 630v37q0 18 -13 18q-12 0 -12 -18
v-37q0 -17 13 -17q12 0 12 17z" />
    <glyph glyph-name="nine.sup" horiz-adv-x="222" 
d="M9 660q0 41 24.5 65.5t75.5 24.5q102 0 102 -90v-175q0 -37 -22.5 -62.5t-77.5 -25.5t-75 22t-20 61v28h84v-26q0 -16 13 -16q11 0 11 16v74q-23 -32 -59 -32q-26 0 -41 18.5t-15 43.5v74zM110 681q-15 0 -15 -20v-55q0 -20 15 -20q14 0 14 20v55q0 20 -14 20z" />
    <glyph glyph-name="IJ.alt" horiz-adv-x="407" 
d="M178 0v134h54q19 0 19 25v585h138v-657q0 -43 -21 -65t-57 -22h-133zM152 744v-744h-133v744h133z" />
    <glyph glyph-name="a.alt2" 
d="M193 538h126v-538h-126v60q-12 -26 -35 -48.5t-52 -22.5h-3q-38 0 -63 33.5t-25 81.5v333q0 41 21 74t56 33h7q54 0 94 -63v57zM193 143v253q0 41 -26 41q-24 0 -24 -37v-262q0 -37 24 -37q26 0 26 42z" />
    <glyph glyph-name="Eacute.alt" horiz-adv-x="311" 
d="M106 770l43 115h106l-45 -115h-104zM19 744h275v-131h-142v-162h135v-134h-135v-183h146v-134h-279v744z" />
    <glyph glyph-name="Ebreve.alt" horiz-adv-x="306" 
d="M19 744h275v-131h-142v-162h135v-134h-135v-183h146v-134h-279v744zM161 767h-4q-47 0 -77 28t-30 75v5h85v-3q0 -26 23 -26h2q23 0 23 26v3h84v-5q0 -47 -31 -75t-75 -28z" />
    <glyph glyph-name="Ecaron.alt" horiz-adv-x="306" 
d="M19 744h275v-131h-142v-162h135v-134h-135v-183h146v-134h-279v744zM109 770l-66 115h90l27 -48l27 48h89l-66 -115h-101z" />
    <glyph glyph-name="Ecircumflex.alt" horiz-adv-x="311" 
d="M211 885l66 -115h-89l-28 47l-27 -47h-89l65 115h102zM19 744h275v-131h-142v-162h135v-134h-135v-183h146v-134h-279v744z" />
    <glyph glyph-name="Edieresis.alt" horiz-adv-x="311" 
d="M273 876v-106h-100v106h100zM148 876v-106h-100v106h100zM19 744h275v-131h-142v-162h135v-134h-135v-183h146v-134h-279v744z" />
    <glyph glyph-name="Edotaccent.alt" horiz-adv-x="306" 
d="M19 744h275v-131h-142v-162h135v-134h-135v-183h146v-134h-279v744zM224 896v-126h-128v126h128z" />
    <glyph glyph-name="Egrave.alt" horiz-adv-x="311" 
d="M174 885l43 -115h-104l-44 115h105zM19 744h275v-131h-142v-162h135v-134h-135v-183h146v-134h-279v744z" />
    <glyph glyph-name="Emacron.alt" horiz-adv-x="306" 
d="M19 744h275v-131h-142v-162h135v-134h-135v-183h146v-134h-279v744zM63 777v88h193v-88h-193z" />
    <glyph glyph-name="Eogonek.alt" horiz-adv-x="306" 
d="M19 744h275v-131h-142v-162h135v-134h-135v-183h146v-134h-42q-44 -55 -44 -84v-4q0 -20 26 -20h18v-80h-58q-34 0 -56 17t-22 47v15q0 45 74 109h-175v744z" />
    <glyph glyph-name="Jcircumflex.alt" horiz-adv-x="236" 
d="M7 134v-134h133q36 0 57 22t21 65v657h-138v-585q0 -25 -19 -25h-54zM198 885l66 -115h-89l-28 47l-27 -47h-89l65 115h102z" />
    <glyph glyph-name="aacute.alt" horiz-adv-x="320" 
d="M303 426v-303q0 -85 11 -118v-5h-122q-12 14 -12 61q-36 -66 -91 -66h-4q-35 0 -54 27.5t-19 65.5v117q0 75 56 110q13 8 55 28.5t49 24.5q8 5 8 20v29q0 29 -22 29h-4q-22 0 -22 -29v-53h-114v74q0 44 28 75t98 31h23q75 0 105.5 -30.5t30.5 -87.5zM106 564l42 136h105
l-44 -136h-103zM180 134v131q-24 -13 -33 -25q-12 -15 -12 -41v-65q0 -32 21 -32q24 0 24 32z" />
    <glyph glyph-name="aacute.alt2" 
d="M319 538h-126v-57q-40 63 -94 63h-7q-35 0 -56 -33t-21 -74v-333q0 -48 25 -81.5t63 -33.5h3q29 0 52 22.5t35 48.5v-60h126v538zM193 396v-253q0 -42 -26 -42q-24 0 -24 37v262q0 37 24 37q26 0 26 -41zM113 564l42 136h105l-44 -136h-103z" />
    <glyph glyph-name="abreve.alt" horiz-adv-x="320" 
d="M303 426v-303q0 -85 11 -118v-5h-122q-12 14 -12 61q-36 -66 -91 -66h-4q-35 0 -54 27.5t-19 65.5v117q0 75 56 110q13 8 55 28.5t49 24.5q8 5 8 20v29q0 29 -22 29h-4q-22 0 -22 -29v-53h-114v74q0 44 28 75t98 31h23q75 0 105.5 -30.5t30.5 -87.5zM152 563h-3
q-48 0 -78 28.5t-30 80.5v8h85v-6q0 -33 24 -33h1q24 0 24 33v6h83v-8q0 -51 -30.5 -80t-75.5 -29zM180 134v131q-24 -13 -33 -25q-12 -15 -12 -41v-65q0 -32 21 -32q24 0 24 32z" />
    <glyph glyph-name="abreve.alt2" 
d="M193 538h126v-538h-126v60q-12 -26 -35 -48.5t-52 -22.5h-3q-38 0 -63 33.5t-25 81.5v333q0 41 21 74t56 33h7q54 0 94 -63v57zM167 563h-3q-48 0 -78 28.5t-30 80.5v8h85v-6q0 -33 24 -33h1q24 0 24 33v6h83v-8q0 -51 -30.5 -80t-75.5 -29zM193 143v253q0 41 -26 41
q-24 0 -24 -37v-262q0 -37 24 -37q26 0 26 42z" />
    <glyph glyph-name="acircumflex.alt" horiz-adv-x="320" 
d="M303 426v-303q0 -85 11 -118v-5h-122q-12 14 -12 61q-36 -66 -91 -66h-4q-35 0 -54 27.5t-19 65.5v117q0 75 56 110q13 8 55 28.5t49 24.5q8 5 8 20v29q0 29 -22 29h-4q-22 0 -22 -29v-53h-114v74q0 44 28 75t98 31h23q75 0 105.5 -30.5t30.5 -87.5zM211 700l62 -136h-91
l-24 62l-25 -62h-89l61 136h106zM180 134v131q-24 -13 -33 -25q-12 -15 -12 -41v-65q0 -32 21 -32q24 0 24 32z" />
    <glyph glyph-name="acircumflex.alt2" 
d="M319 538h-126v-57q-40 63 -94 63h-7q-35 0 -56 -33t-21 -74v-333q0 -48 25 -81.5t63 -33.5h3q29 0 52 22.5t35 48.5v-60h126v538zM217 700l62 -136h-91l-24 62l-25 -62h-89l61 136h106zM193 396v-253q0 -42 -26 -42q-24 0 -24 37v262q0 37 24 37q26 0 26 -41z" />
    <glyph glyph-name="adieresis.alt" horiz-adv-x="320" 
d="M303 426v-303q0 -85 11 -118v-5h-122q-12 14 -12 61q-36 -66 -91 -66h-4q-35 0 -54 27.5t-19 65.5v117q0 75 56 110q13 8 55 28.5t49 24.5q8 5 8 20v29q0 29 -22 29h-4q-22 0 -22 -29v-53h-114v74q0 44 28 75t98 31h23q75 0 105.5 -30.5t30.5 -87.5zM268 670v-106h-100
v106h100zM144 670v-106h-100v106h100zM180 134v131q-24 -13 -33 -25q-12 -15 -12 -41v-65q0 -32 21 -32q24 0 24 32z" />
    <glyph glyph-name="adieresis.alt2" 
d="M193 538h126v-538h-126v60q-12 -26 -35 -48.5t-52 -22.5h-3q-38 0 -63 33.5t-25 81.5v333q0 41 21 74t56 33h7q54 0 94 -63v57zM193 143v253q0 41 -26 41q-24 0 -24 -37v-262q0 -37 24 -37q26 0 26 42zM154 670v-106h-100v106h100zM278 670v-106h-100v106h100z" />
    <glyph glyph-name="agrave.alt" horiz-adv-x="320" 
d="M303 426v-303q0 -85 11 -118v-5h-122q-12 14 -12 61q-36 -66 -91 -66h-4q-35 0 -54 27.5t-19 65.5v117q0 75 56 110q13 8 55 28.5t49 24.5q8 5 8 20v29q0 29 -22 29h-4q-22 0 -22 -29v-53h-114v74q0 44 28 75t98 31h23q75 0 105.5 -30.5t30.5 -87.5zM168 700l41 -136
h-102l-45 136h106zM180 134v131q-24 -13 -33 -25q-12 -15 -12 -41v-65q0 -32 21 -32q24 0 24 32z" />
    <glyph glyph-name="agrave.alt2" 
d="M319 538h-126v-57q-40 63 -94 63h-7q-35 0 -56 -33t-21 -74v-333q0 -48 25 -81.5t63 -33.5h3q29 0 52 22.5t35 48.5v-60h126v538zM193 396v-253q0 -42 -26 -42q-24 0 -24 37v262q0 37 24 37q26 0 26 -41zM174 700l41 -136h-102l-45 136h106z" />
    <glyph glyph-name="amacron.alt" horiz-adv-x="320" 
d="M303 426v-303q0 -85 11 -118v-5h-122q-12 14 -12 61q-36 -66 -91 -66h-4q-35 0 -54 27.5t-19 65.5v117q0 75 56 110q13 8 55 28.5t49 24.5q8 5 8 20v29q0 29 -22 29h-4q-22 0 -22 -29v-53h-114v74q0 44 28 75t98 31h23q75 0 105.5 -30.5t30.5 -87.5zM62 576v87h191v-87
h-191zM180 134v131q-24 -13 -33 -25q-12 -15 -12 -41v-65q0 -32 21 -32q24 0 24 32z" />
    <glyph glyph-name="amacron.alt2" 
d="M319 538h-126v-57q-40 63 -94 63h-7q-35 0 -56 -33t-21 -74v-333q0 -48 25 -81.5t63 -33.5h3q29 0 52 22.5t35 48.5v-60h126v538zM69 576v87h191v-87h-191zM193 396v-253q0 -42 -26 -42q-24 0 -24 37v262q0 37 24 37q26 0 26 -41z" />
    <glyph glyph-name="aogonek.alt" horiz-adv-x="320" 
d="M178 -124v15q0 45 74 109h-60q-12 14 -12 61q-36 -66 -91 -66h-4q-35 0 -54 27.5t-19 65.5v117q0 75 56 110q13 8 55 28.5t49 24.5q8 5 8 20v29q0 29 -22 29h-4q-22 0 -22 -29v-53h-114v74q0 44 28 75t98 31h23q75 0 105.5 -30.5t30.5 -87.5v-303q0 -85 11 -118v-5
q-44 -55 -44 -84v-4q0 -20 26 -20h18v-80h-58q-34 0 -56 17t-22 47zM180 134v131q-24 -13 -33 -25q-12 -15 -12 -41v-65q0 -32 21 -32q24 0 24 32z" />
    <glyph glyph-name="aogonek.alt2" 
d="M193 538h126v-538h-126v60q-12 -26 -35 -48.5t-52 -22.5h-3q-38 0 -63 33.5t-25 81.5v333q0 41 21 74t56 33h7q54 0 94 -63v57zM183 -124v15q0 45 74 109h62q-44 -55 -44 -84v-4q0 -20 26 -20h18v-80h-58q-34 0 -56 17t-22 47zM193 143v253q0 41 -26 41q-24 0 -24 -37
v-262q0 -37 24 -37q26 0 26 42z" />
    <glyph glyph-name="aring.alt" horiz-adv-x="320" 
d="M303 426v-303q0 -85 11 -118v-5h-122q-12 14 -12 61q-36 -66 -91 -66h-4q-35 0 -54 27.5t-19 65.5v117q0 75 56 110q13 8 55 28.5t49 24.5q8 5 8 20v29q0 29 -22 29h-4q-22 0 -22 -29v-53h-114v74q0 44 28 75t98 31h23q75 0 105.5 -30.5t30.5 -87.5zM152 562
q-35 0 -57.5 22t-22.5 57t22.5 57t57.5 22t57.5 -22t22.5 -57t-22.5 -57t-57.5 -22zM180 134v131q-24 -13 -33 -25q-12 -15 -12 -41v-65q0 -32 21 -32q24 0 24 32zM152 608q15 0 23.5 9.5t8.5 23.5t-8.5 23.5t-23.5 9.5t-23.5 -9.5t-8.5 -23.5t8.5 -23.5t23.5 -9.5z" />
    <glyph glyph-name="aring.alt2" 
d="M193 538h126v-538h-126v60q-12 -26 -35 -48.5t-52 -22.5h-3q-38 0 -63 33.5t-25 81.5v333q0 41 21 74t56 33h7q54 0 94 -63v57zM161 562q-35 0 -57.5 22t-22.5 57t22.5 57t57.5 22t57.5 -22t22.5 -57t-22.5 -57t-57.5 -22zM193 143v253q0 41 -26 41q-24 0 -24 -37v-262
q0 -37 24 -37q26 0 26 42zM161 608q15 0 23.5 9.5t8.5 23.5t-8.5 23.5t-23.5 9.5t-23.5 -9.5t-8.5 -23.5t8.5 -23.5t23.5 -9.5z" />
    <glyph glyph-name="aringacute.alt" horiz-adv-x="320" 
d="M303 426v-303q0 -85 11 -118v-5h-122q-12 14 -12 61q-36 -66 -91 -66h-4q-35 0 -54 27.5t-19 65.5v117q0 75 56 110q13 8 55 28.5t49 24.5q8 5 8 20v29q0 29 -22 29h-4q-22 0 -22 -29v-53h-114v74q0 44 28 75t98 31h23q75 0 105.5 -30.5t30.5 -87.5zM155 562
q35 0 57.5 22t22.5 57t-22.5 57t-57.5 22t-57.5 -22t-22.5 -57t22.5 -57t57.5 -22zM106 736l42 136h105l-44 -136h-103zM180 134v131q-24 -13 -33 -25q-12 -15 -12 -41v-65q0 -32 21 -32q24 0 24 32zM155 608q-15 0 -23.5 9.5t-8.5 23.5t8.5 23.5t23.5 9.5t23.5 -9.5
t8.5 -23.5t-8.5 -23.5t-23.5 -9.5z" />
    <glyph glyph-name="aringacute.alt2" 
d="M319 538h-126v-57q-40 63 -94 63h-7q-35 0 -56 -33t-21 -74v-333q0 -48 25 -81.5t63 -33.5h3q29 0 52 22.5t35 48.5v-60h126v538zM163 562q35 0 57.5 22t22.5 57t-22.5 57t-57.5 22t-57.5 -22t-22.5 -57t22.5 -57t57.5 -22zM193 396v-253q0 -42 -26 -42q-24 0 -24 37v262
q0 37 24 37q26 0 26 -41zM114 736l42 136h105l-44 -136h-103zM163 608q-15 0 -23.5 9.5t-8.5 23.5t8.5 23.5t23.5 9.5t23.5 -9.5t8.5 -23.5t-8.5 -23.5t-23.5 -9.5z" />
    <glyph glyph-name="atilde.alt" horiz-adv-x="320" 
d="M303 426v-303q0 -85 11 -118v-5h-122q-12 14 -12 61q-36 -66 -91 -66h-4q-35 0 -54 27.5t-19 65.5v117q0 75 56 110q13 8 55 28.5t49 24.5q8 5 8 20v29q0 29 -22 29h-4q-22 0 -22 -29v-53h-114v74q0 44 28 75t98 31h23q75 0 105.5 -30.5t30.5 -87.5zM191 678h73v-56
q0 -25 -15 -42t-39 -17q-22 0 -60 19q-19 9 -23 9q-7 0 -7 -12v-16h-72v47q0 31 14.5 49.5t40.5 18.5q20 0 59 -18q19 -8 23 -8q6 0 6 10v16zM180 134v131q-24 -13 -33 -25q-12 -15 -12 -41v-65q0 -32 21 -32q24 0 24 32z" />
    <glyph glyph-name="atilde.alt2" 
d="M193 538h126v-538h-126v60q-12 -26 -35 -48.5t-52 -22.5h-3q-38 0 -63 33.5t-25 81.5v333q0 41 21 74t56 33h7q54 0 94 -63v57zM200 678h73v-56q0 -25 -15 -42t-39 -17q-22 0 -60 19q-19 9 -23 9q-7 0 -7 -12v-16h-72v47q0 31 14.5 49.5t40.5 18.5q20 0 59 -18
q19 -8 23 -8q6 0 6 10v16zM193 143v253q0 41 -26 41q-24 0 -24 -37v-262q0 -37 24 -37q26 0 26 42z" />
    <glyph glyph-name="racute.alt" horiz-adv-x="271" 
d="M143 538v-80q31 84 84 84h7q16 0 28 -4v-146q-25 9 -55 9h-4q-32 0 -45.5 -10.5t-13.5 -32.5v-358h-128v538h127zM90 564l42 136h105l-44 -136h-103z" />
    <glyph glyph-name="rcaron.alt" horiz-adv-x="271" 
d="M143 538v-80q31 84 84 84h7q16 0 28 -4v-146q-25 9 -55 9h-4q-32 0 -45.5 -10.5t-13.5 -32.5v-358h-128v538h127zM90 564l-62 136h91l24 -62l25 62h89l-62 -136h-105z" />
    <glyph glyph-name="rcommaaccent.alt" horiz-adv-x="271" 
d="M143 538v-80q31 84 84 84h7q16 0 28 -4v-146q-25 9 -55 9h-4q-32 0 -45.5 -10.5t-13.5 -32.5v-358h-128v538h127zM58 -203h51q22 55 22 107v70h-102v-110h43q-3 -36 -14 -67z" />
    <glyph glyph-name="space_uni0326.alt" horiz-adv-x="338" 
d="M139 742h53q-12 -41 -14 -69h42v-109h-103v69q0 62 22 109z" />
    <glyph glyph-name="ordfeminine.alt" horiz-adv-x="196" 
d="M108 488q-20 -40 -55 -40q-21 0 -33 16t-12 39v53q0 40 34 62q8 5 32.5 17.5t28.5 14.5q5 3 5 12v9q0 16 -12 16h-1q-12 0 -12 -17v-20h-72v34q0 26 17 45t59 19h14q46 0 64 -18.5t18 -52.5v-159q0 -45 6 -63v-4h-75q-6 9 -6 37zM108 589q-10 -4 -17 -11t-7 -23v-28
q0 -17 11 -17q13 0 13 18v61z" />
    <glyph glyph-name="ordfeminine.alt2" horiz-adv-x="212" 
d="M119 744h79v-293h-79v35q-18 -41 -52 -41h-2q-23 0 -38 18t-15 48v174q0 26 13 44t35 18h4q35 0 55 -38v35zM119 532v131q0 22 -15 22q-13 0 -13 -20v-136q0 -20 13 -20q15 0 15 23z" />
    <glyph glyph-name="caron.alt" horiz-adv-x="338" 
d="M122 594l6 150h87l-12 -150h-81z" />
    <glyph glyph-name="plus.uc" horiz-adv-x="340" 
d="M121 175v121h-108v91h108v122h98v-122h108v-91h-108v-121h-98z" />
    <glyph glyph-name="minus.uc" horiz-adv-x="316" 
d="M13 387h290v-91h-290v91z" />
    <glyph glyph-name="multiply.uc" horiz-adv-x="311" 
d="M241 190l-86 87l-84 -87l-63 60l85 89l-86 88l65 66l85 -88l84 88l63 -62l-86 -89l86 -87z" />
    <glyph glyph-name="divide.uc" horiz-adv-x="339" 
d="M13 387h313v-91h-313v91zM221 519v-103h-103v103h103zM221 264v-103h-103v103h103z" />
    <glyph glyph-name="equal.uc" horiz-adv-x="331" 
d="M15 328h301v-83h-301v83zM15 439h301v-84h-301v84z" />
    <glyph glyph-name="less.uc" horiz-adv-x="286" 
d="M10 298v87l263 105v-94l-155 -55l155 -53v-95z" />
    <glyph glyph-name="greater.uc" horiz-adv-x="285" 
d="M13 396v94l262 -105v-87l-262 -105v95l154 54z" />
    <glyph glyph-name="questiondown.uc" horiz-adv-x="329" 
d="M130 577h104v-128q0 -36 -6.5 -57t-27.5 -55l-35 -56q-21 -33 -21 -85v-49q0 -20 5.5 -27.5t19.5 -7.5q15 0 20 8t5 27v114h124v-118q0 -72 -28.5 -112t-107.5 -40h-27q-77 0 -110.5 37.5t-33.5 107.5v52q0 47 9 78.5t36 66.5l49 67q16 22 20.5 36.5t4.5 48.5v92z
M122 600v144h119v-144h-119z" />
    <glyph glyph-name="exclamdown.uc" horiz-adv-x="160" 
d="M139 744v-144h-119v144h119zM152 0h-145l47 577h51z" />
    <glyph glyph-name="hyphen.uc" horiz-adv-x="179" 
d="M13 400h153v-121h-153v121z" />
    <glyph glyph-name="endash.uc" horiz-adv-x="334" 
d="M13 386h308v-90h-308v90z" />
    <glyph glyph-name="emdash.uc" horiz-adv-x="506" 
d="M13 386h480v-90h-480v90z" />
    <glyph glyph-name="guilsinglleft.uc" horiz-adv-x="159" 
d="M108 308l45 -167h-99l-44 137v60l44 135h100z" />
    <glyph glyph-name="guilsinglright.uc" horiz-adv-x="159" 
d="M50 307l-44 166h100l43 -136v-60l-43 -136h-101z" />
    <glyph glyph-name="guillemotleft.uc" horiz-adv-x="269" 
d="M100 308l50 -167h-92l-48 137v60l48 135h92zM220 308l43 -167h-93l-48 167l48 165h94z" />
    <glyph glyph-name="guillemotright.uc" horiz-adv-x="268" 
d="M118 141l50 166l-50 166h93l47 -137v-59l-48 -136h-92zM5 141l44 166l-44 166h93l48 -166l-48 -166h-93z" />
    <glyph glyph-name="parenleft.uc" horiz-adv-x="209" 
d="M25 373q0 228 109 443h77q-28 -80 -48 -198t-20 -242q0 -223 71 -457h-77q-112 229 -112 454z" />
    <glyph glyph-name="parenright.uc" horiz-adv-x="209" 
d="M184 373q0 -225 -112 -454h-77q71 234 71 457q0 124 -20 242t-48 198h77q109 -215 109 -443z" />
    <glyph glyph-name="bracketleft.uc" horiz-adv-x="196" 
d="M192 817v-96h-54v-698h54v-96h-160v890h160z" />
    <glyph glyph-name="bracketright.uc" horiz-adv-x="196" 
d="M4 -73v96h54v698h-54v96h160v-890h-160z" />
    <glyph glyph-name="braceleft.uc" horiz-adv-x="206" 
d="M170 289q0 -23 -14 -111.5t-14 -112.5q0 -47 43 -47h17v-91h-44q-60 0 -92 29.5t-32 83.5q0 23 15.5 117.5t15.5 128.5q0 38 -30 38h-20v101h20q30 0 30 33q0 36 -15.5 130t-15.5 121q0 52 32.5 80t91.5 28h44v-92h-21q-39 0 -39 -38q0 -23 14 -111.5t14 -110.5
q0 -36 -11 -58t-40 -33q29 -11 40 -31.5t11 -53.5z" />
    <glyph glyph-name="braceright.uc" horiz-adv-x="206" 
d="M35 465q0 22 14.5 110.5t14.5 111.5q0 38 -39 38h-21v92h44q58 0 91 -28t33 -80q0 -27 -16 -121.5t-16 -129.5q0 -33 30 -33h21v-101h-21q-30 0 -30 -38q0 -34 16 -128.5t16 -117.5q0 -54 -32 -83.5t-92 -29.5h-44v91h16q44 0 44 47q0 24 -14.5 112.5t-14.5 111.5
q0 34 10.5 54t40.5 31q-29 11 -40 33t-11 58z" />
    <glyph glyph-name="slash.uc" horiz-adv-x="215" 
d="M217 816l-126 -897h-94l125 897h95z" />
    <glyph glyph-name="backslash.uc" horiz-adv-x="216" 
d="M124 -81l-125 897h94l126 -897h-95z" />
    <glyph glyph-name="bar.uc" horiz-adv-x="167" 
d="M129 816v-897h-91v897h91z" />
    <glyph glyph-name="at.uc" horiz-adv-x="580" 
d="M457 76l50 -59q-15 -22 -36.5 -42.5t-69 -42t-102.5 -21.5h-10q-39 0 -71.5 6t-71.5 29.5t-65.5 63t-45 113t-18.5 173.5v111q0 179 71 276.5t206 97.5h18q254 0 254 -305v-104q0 -283 -136 -283h-7q-75 0 -102 67q-36 -67 -91 -67h-5q-31 0 -55.5 31t-22.5 84l13 293
q2 40 22.5 68t54.5 28h6q40 0 76 -54l2 50h123l-22 -402q0 -18 13 -18q46 0 46 200v105q0 127 -42.5 178.5t-126.5 51.5h-18q-90 0 -139 -73.5t-50 -225.5v-107q0 -81 13 -140t31 -90.5t45 -50t48.5 -23t46.5 -4.5h10q95 0 158 86zM303 217l13 249q1 19 -3 26t-14 7
t-13.5 -7.5t-4.5 -25.5l-13 -250q-1 -19 2.5 -26.5t13.5 -7.5q18 0 19 35z" />
    <glyph glyph-name="grave.uc" horiz-adv-x="338" 
d="M200 885l43 -115h-104l-44 115h105z" />
    <glyph glyph-name="dieresis.uc" horiz-adv-x="338" 
d="M282 876v-106h-100v106h100zM157 876v-106h-100v106h100z" />
    <glyph glyph-name="macron.uc" horiz-adv-x="338" 
d="M73 777v88h193v-88h-193z" />
    <glyph glyph-name="acute.uc" horiz-adv-x="338" 
d="M94 770l43 115h106l-45 -115h-104z" />
    <glyph glyph-name="circumflex.uc" horiz-adv-x="338" 
d="M219 885l66 -115h-89l-28 47l-27 -47h-89l65 115h102z" />
    <glyph glyph-name="caron.uc" horiz-adv-x="338" 
d="M118 770l-66 115h90l27 -48l27 48h89l-66 -115h-101z" />
    <glyph glyph-name="breve.uc" horiz-adv-x="338" 
d="M172 767h-4q-47 0 -77 28t-30 75v5h85v-3q0 -26 23 -26h2q23 0 23 26v3h84v-5q0 -47 -31 -75t-75 -28z" />
    <glyph glyph-name="dotaccent.uc" horiz-adv-x="338" 
d="M233 896v-126h-128v126h128z" />
    <glyph glyph-name="ring.uc" horiz-adv-x="338" 
d="M169 811q15 0 23.5 9.5t8.5 23.5t-8.5 23.5t-23.5 9.5t-23.5 -9.5t-8.5 -23.5t8.5 -23.5t23.5 -9.5zM169 765q-35 0 -57.5 22t-22.5 57t22.5 57t57.5 22t57.5 -22t22.5 -57t-22.5 -57t-57.5 -22z" />
    <glyph glyph-name="tilde.uc" horiz-adv-x="338" 
d="M166 787q-22 9 -25 9q-8 0 -8 -11v-16h-72v34q0 37 15 57t42 20q25 0 54 -13q21 -10 27 -10t6 10v16h72v-34q0 -38 -17 -57t-40 -19q-22 0 -54 14z" />
    <glyph glyph-name="hungarumlaut.uc" horiz-adv-x="338" 
d="M56 770l24 115h90l-27 -115h-87zM167 770l26 115h89l-29 -115h-86z" />
    <glyph glyph-name="emdash.altuc" horiz-adv-x="986" 
d="M13 386h960v-90h-960v90z" />
    <glyph glyph-name="f.short" horiz-adv-x="260" 
d="M253 744v-113h-42q-12 0 -16 -5t-4 -18v-70h62v-119h-62v-419h-127v419h-60v119h60v132q0 30 21 52t61 22h107z" />
    <glyph glyph-name="f_f.short" horiz-adv-x="471" 
d="M258 744v-113h-47q-12 0 -16 -5t-4 -18v-70h84v132q0 30 21 52t61 22h107v-113h-42q-12 0 -16 -5t-4 -18v-70h62v-119h-62v-419h-127v419h-84v-419h-127v419h-60v119h60v132q0 30 21 52t61 22h112z" />
    <glyph glyph-name="j.short" horiz-adv-x="161" 
d="M145 690v-126h-128v126h128zM-28 -69h27q10 0 14 4.5t4 16.5v586h128v-654q0 -30 -20.5 -51t-53.5 -21h-99v119z" />
    </font>
</defs>
</svg>
